<svg xmlns="http://www.w3.org/2000/svg" xmlns:xlink="http://www.w3.org/1999/xlink" viewBox="0 0 545 400"><defs><style>.cls-1{isolation:isolate;}.cls-2{fill:#09804c;}.cls-16,.cls-21,.cls-22,.cls-24,.cls-25,.cls-3{fill:none;}.cls-3{stroke:#fef7e3;}.cls-16,.cls-24,.cls-25,.cls-3{stroke-linecap:round;stroke-linejoin:round;}.cls-4{fill:url(#linear-gradient);}.cls-5{fill:url(#linear-gradient-2);}.cls-6{fill:url(#linear-gradient-3);}.cls-7{fill:url(#linear-gradient-4);}.cls-8{fill:#136149;}.cls-9{fill:#0b3b35;opacity:0.45;}.cls-10{fill:#f7a76f;}.cls-11{fill:#f9d3c5;}.cls-12{fill:#ffe1ea;}.cls-13{fill:url(#linear-gradient-5);}.cls-14{fill:url(#linear-gradient-6);}.cls-15{fill:#f97216;}.cls-16{stroke:#f7a76f;}.cls-17{fill:url(#linear-gradient-7);}.cls-18{fill:url(#linear-gradient-8);}.cls-19{fill:#6e60f9;opacity:0.29;}.cls-20{opacity:0.4;}.cls-21{stroke:#c5e4f2;}.cls-21,.cls-22{stroke-miterlimit:10;}.cls-21,.cls-25{mix-blend-mode:lighten;}.cls-22{stroke:#f4bdca;}.cls-23{fill:url(#linear-gradient-9);}.cls-24,.cls-25{stroke:#ffe1ea;}.cls-26{fill:#fff;}.cls-27{fill:#9795f9;}.cls-28{fill:url(#linear-gradient-10);}.cls-29{fill:url(#linear-gradient-11);}.cls-30{fill:#7dc5db;}</style><linearGradient id="linear-gradient" x1="-10841.36" y1="1840.44" x2="-10851.66" y2="1905.43" gradientTransform="translate(-10609.62 1915.1) rotate(180)" gradientUnits="userSpaceOnUse"><stop offset="0" stop-color="#c5e4f2" stop-opacity="0"/><stop offset="0.16" stop-color="#c5e4f2" stop-opacity="0.01"/><stop offset="0.3" stop-color="#c5e4f2" stop-opacity="0.06"/><stop offset="0.43" stop-color="#c5e4f2" stop-opacity="0.13"/><stop offset="0.56" stop-color="#c5e4f2" stop-opacity="0.24"/><stop offset="0.69" stop-color="#c5e4f2" stop-opacity="0.37"/><stop offset="0.81" stop-color="#c5e4f2" stop-opacity="0.54"/><stop offset="0.93" stop-color="#c5e4f2" stop-opacity="0.73"/><stop offset="1" stop-color="#c5e4f2" stop-opacity="0.86"/></linearGradient><linearGradient id="linear-gradient-2" x1="-11090.56" y1="1617.74" x2="-11096.94" y2="1658.04" xlink:href="#linear-gradient"/><linearGradient id="linear-gradient-3" x1="-529.33" y1="1741.12" x2="-500.11" y2="1791.72" gradientTransform="matrix(1, 0, 0, -1, 564, 1915.1)" gradientUnits="userSpaceOnUse"><stop offset="0" stop-color="#c5e4f2" stop-opacity="0"/><stop offset="0.12" stop-color="#c5e4f2" stop-opacity="0.02"/><stop offset="0.26" stop-color="#c5e4f2" stop-opacity="0.08"/><stop offset="0.41" stop-color="#c5e4f2" stop-opacity="0.18"/><stop offset="0.56" stop-color="#c5e4f2" stop-opacity="0.31"/><stop offset="0.72" stop-color="#c5e4f2" stop-opacity="0.49"/><stop offset="0.89" stop-color="#c5e4f2" stop-opacity="0.7"/><stop offset="1" stop-color="#c5e4f2" stop-opacity="0.86"/></linearGradient><linearGradient id="linear-gradient-4" x1="-233.87" y1="1740.23" x2="-174.74" y2="1789.85" gradientTransform="matrix(1, 0, 0, -1, 564, 1915.1)" gradientUnits="userSpaceOnUse"><stop offset="0" stop-color="#c5e4f2" stop-opacity="0.86"/><stop offset="0.2" stop-color="#c5e4f2" stop-opacity="0.65"/><stop offset="0.48" stop-color="#c5e4f2" stop-opacity="0.37"/><stop offset="0.72" stop-color="#c5e4f2" stop-opacity="0.17"/><stop offset="0.9" stop-color="#c5e4f2" stop-opacity="0.05"/><stop offset="1" stop-color="#c5e4f2" stop-opacity="0"/></linearGradient><linearGradient id="linear-gradient-5" x1="157" y1="314.07" x2="216.05" y2="211.81" gradientTransform="translate(449.46 76.42) rotate(90)" gradientUnits="userSpaceOnUse"><stop offset="0" stop-color="#f97216"/><stop offset="0.02" stop-color="#f87421"/><stop offset="0.09" stop-color="#f67b42"/><stop offset="0.17" stop-color="#f4825f"/><stop offset="0.25" stop-color="#f28776"/><stop offset="0.35" stop-color="#f18a87"/><stop offset="0.47" stop-color="#f08d94"/><stop offset="0.63" stop-color="#ef8f9b"/><stop offset="1" stop-color="#ef8f9d"/></linearGradient><linearGradient id="linear-gradient-6" x1="410.03" y1="243.9" x2="479.72" y2="123.2" gradientUnits="userSpaceOnUse"><stop offset="0" stop-color="#9795f9"/><stop offset="0.22" stop-color="#9492f7" stop-opacity="0.99"/><stop offset="0.42" stop-color="#8c8af0" stop-opacity="0.97"/><stop offset="0.61" stop-color="#7e7de5" stop-opacity="0.93"/><stop offset="0.8" stop-color="#6b6ad5" stop-opacity="0.88"/><stop offset="0.98" stop-color="#5252c1" stop-opacity="0.81"/><stop offset="1" stop-color="#4f4fbf" stop-opacity="0.8"/></linearGradient><linearGradient id="linear-gradient-7" x1="80.4" y1="100.49" x2="134.59" y2="6.63" gradientUnits="userSpaceOnUse"><stop offset="0.02" stop-color="#d83a6c"/><stop offset="0.17" stop-color="#dd4b76"/><stop offset="0.53" stop-color="#e7708b"/><stop offset="0.82" stop-color="#ed8798"/><stop offset="1" stop-color="#ef8f9d"/></linearGradient><linearGradient id="linear-gradient-8" x1="130.61" y1="118.05" x2="185.32" y2="23.3" gradientUnits="userSpaceOnUse"><stop offset="0" stop-color="#ef8f9d"/><stop offset="0.18" stop-color="#ed8798"/><stop offset="0.47" stop-color="#e7708b"/><stop offset="0.83" stop-color="#dd4b76"/><stop offset="0.98" stop-color="#d83a6c"/></linearGradient><linearGradient id="linear-gradient-9" x1="94.94" y1="253.58" x2="289.95" y2="253.58" gradientUnits="userSpaceOnUse"><stop offset="0" stop-color="#f4bde5" stop-opacity="0.86"/><stop offset="0.12" stop-color="#ebc5e8" stop-opacity="0.69"/><stop offset="0.28" stop-color="#dfceeb" stop-opacity="0.48"/><stop offset="0.44" stop-color="#d6d6ed" stop-opacity="0.31"/><stop offset="0.6" stop-color="#cfdcef" stop-opacity="0.18"/><stop offset="0.74" stop-color="#c9e0f1" stop-opacity="0.08"/><stop offset="0.88" stop-color="#c6e3f2" stop-opacity="0.02"/><stop offset="1" stop-color="#c5e4f2" stop-opacity="0"/></linearGradient><linearGradient id="linear-gradient-10" x1="-10751.7" y1="1507.93" x2="-10763.47" y2="1582.24" xlink:href="#linear-gradient"/><linearGradient id="linear-gradient-11" x1="-10680.29" y1="1505.8" x2="-10688.96" y2="1560.54" xlink:href="#linear-gradient"/></defs><g class="cls-1"><g id="Plants"><rect class="cls-2" x="248.99" y="282.59" width="197.41" height="9.17" transform="translate(-96.99 212.24) rotate(-29.99)"/><line class="cls-3" x1="259.6" y1="338.55" x2="428.52" y2="239.82"/><path class="cls-4" d="M147.9,61.37H320.1a22.68,22.68,0,0,0-22.69-22.44,21.7,21.7,0,0,0-3.94.35A31.64,31.64,0,0,0,264,19.16,31,31,0,0,0,253.46,21a43.91,43.91,0,0,0-73.94,16.08,26.38,26.38,0,0,0-6.44-.82,25.15,25.15,0,0,0-25.18,25.1Z"/><path class="cls-5" d="M429,289.12H535.71a14.05,14.05,0,0,0-14.06-13.91,13.25,13.25,0,0,0-2.44.21A19.64,19.64,0,0,0,500.93,263a19.1,19.1,0,0,0-6.53,1.14,27.22,27.22,0,0,0-45.84,10,15.88,15.88,0,0,0-4-.51A15.58,15.58,0,0,0,429,289.11Z"/><path class="cls-6" d="M95.46,153.26A15.26,15.26,0,0,0,72.66,140a26.88,26.88,0,0,0-52.83-1.47A15.88,15.88,0,0,0-.08,153.91"/><path class="cls-7" d="M407.93,153.07a15.26,15.26,0,0,0-22.8-13.29,26.88,26.88,0,0,0-52.83-1.47,15.88,15.88,0,0,0-19.39,11.33,15.58,15.58,0,0,0-.52,4.08"/><path class="cls-8" d="M306,318.93h-39.8l8.46-45.83,5.49-29.7,1.55-8.42a13.07,13.07,0,0,1,1.2-4.27,3.45,3.45,0,0,1,3.2-2c3.34,0,3.93,3.14,4.4,6.23l6.92,37.47Z"/><path class="cls-9" d="M305.41,315.55c-17,.92-24.57-59.86-25.22-72.15l1.55-8.42a13.07,13.07,0,0,1,1.2-4.27,3.45,3.45,0,0,1,3.2-2c3.34,0,3.93,3.14,4.4,6.23Z"/><path class="cls-8" d="M280.81,328.19H256.32l7.94-58,1.59-11.68a11.53,11.53,0,0,1,.64-3.17,2.05,2.05,0,0,1,2.07-1.27c2.2,0,2.42,1.9,2.71,4.44l7.35,53.72Z"/><path class="cls-9" d="M278.62,312.21c-5.26-7.32-9.72-17.41-12.34-29a93.65,93.65,0,0,1-2-13.08l1.59-11.68a11.53,11.53,0,0,1,.64-3.17,2.05,2.05,0,0,1,2.07-1.27c2.2,0,2.42,1.9,2.71,4.44Z"/><path class="cls-8" d="M152,315.23H99.08l11.25-60.93,7.29-39.49,2.07-11.2a17.62,17.62,0,0,1,1.59-5.68,4.6,4.6,0,0,1,4.26-2.6c4.43,0,5.23,4.18,5.85,8.28l9.2,49.83Z"/><path class="cls-9" d="M151.17,310.75c-22.61,1.22-32.68-79.6-33.55-95.94l2.07-11.2a17.62,17.62,0,0,1,1.59-5.68,4.6,4.6,0,0,1,4.26-2.6c4.43,0,5.23,4.18,5.85,8.28Z"/><path class="cls-8" d="M113.13,314.9H80.56l10.56-77.14,2.12-15.54a14.89,14.89,0,0,1,.85-4.21,2.72,2.72,0,0,1,2.75-1.68c2.93,0,3.22,2.52,3.6,5.89l9.78,71.43Z"/><path class="cls-9" d="M110.22,293.65c-7-9.73-12.93-23.14-16.41-38.5a124.6,124.6,0,0,1-2.69-17.39l2.12-15.54a14.89,14.89,0,0,1,.85-4.21,2.72,2.72,0,0,1,2.75-1.68c2.93,0,3.22,2.52,3.6,5.89Z"/></g><g id="Structures"><rect class="cls-10" x="211.61" y="237.98" width="73.29" height="4.15" transform="translate(496.52 480.12) rotate(-180)"/><rect class="cls-10" x="254.09" y="243.84" width="18.47" height="4.15" transform="translate(526.65 491.82) rotate(-180)"/><rect class="cls-10" x="245.31" y="250.02" width="18.47" height="4.15" transform="translate(509.08 504.18) rotate(-180)"/><rect class="cls-10" x="236.53" y="256.2" width="18.47" height="4.15" transform="translate(491.52 516.54) rotate(-180)"/><rect class="cls-10" x="227.75" y="262.38" width="18.47" height="4.15" transform="translate(473.96 528.9) rotate(-180)"/><rect class="cls-10" x="218.97" y="268.55" width="18.47" height="4.15" transform="translate(456.4 541.26) rotate(-180)"/><rect class="cls-10" x="210.19" y="274.73" width="18.47" height="4.15" transform="translate(438.84 553.61) rotate(-180)"/><path class="cls-11" d="M107.36,268.34h33.54a30.24,30.24,0,0,1,30.24,30.24v14.18a0,0,0,0,1,0,0H107.36a0,0,0,0,1,0,0V268.34A0,0,0,0,1,107.36,268.34Z" transform="translate(-151.3 429.8) rotate(-90)"/><rect class="cls-12" x="124.72" y="277.97" width="5.89" height="38.04"/><rect class="cls-12" x="136.95" y="266.43" width="5.89" height="57.06"/><rect class="cls-12" x="149.52" y="266.43" width="5.89" height="57.06"/><rect class="cls-13" x="132.98" y="237.59" width="107.09" height="50.69" transform="translate(-76.42 449.46) rotate(-90)"/><rect class="cls-11" x="205.63" y="261.91" width="39.07" height="75.05" transform="translate(-74.28 524.6) rotate(-90)"/><rect class="cls-12" x="168.24" y="215.25" width="6.34" height="14.94"/><rect class="cls-12" x="178.65" y="215.25" width="6.34" height="14.94"/><rect class="cls-12" x="189.07" y="215.25" width="6.34" height="14.94"/><rect class="cls-12" x="199.48" y="215.25" width="6.34" height="14.94"/><rect class="cls-12" x="167.91" y="236.08" width="6.34" height="14.94"/><rect class="cls-12" x="178.33" y="236.08" width="6.34" height="14.94"/><rect class="cls-12" x="188.75" y="236.08" width="6.34" height="14.94"/><rect class="cls-12" x="199.16" y="236.08" width="6.34" height="14.94"/><rect class="cls-12" x="167.59" y="256.92" width="6.34" height="14.94"/><rect class="cls-12" x="178.01" y="256.92" width="6.34" height="14.94"/><rect class="cls-12" x="188.42" y="256.92" width="6.34" height="14.94"/><rect class="cls-12" x="198.84" y="256.92" width="6.34" height="14.94"/><rect class="cls-12" x="192.32" y="285.28" width="67.48" height="4.08"/><rect class="cls-12" x="192.32" y="294.33" width="67.48" height="4.66"/><rect class="cls-12" x="192.32" y="304.37" width="67.48" height="4.66"/><rect class="cls-2" x="178.67" y="165.78" width="241.86" height="9.17" transform="translate(125.32 -126.98) rotate(30)"/><path class="cls-14" d="M349.67,209.05s3.19-97.27,54.76-97.27c41.28,0,27.92,60.08,64.49,60.08,24.67,0,27.6-26.18,48.14-25.12,12.29.64,17.54,13.67,17.54,30v32.35Z"/><circle class="cls-15" cx="246.14" cy="42.85" r="4.65"/><circle class="cls-15" cx="234.29" cy="35.76" r="4.65"/><circle class="cls-15" cx="243.33" cy="71.28" r="4.65"/><path class="cls-16" d="M233.8,36.35s-26.14,20.81-20.17,61.34"/><path class="cls-16" d="M243.21,71.3s-11,8.76-17.1,26"/><path class="cls-16" d="M245.29,43.5s-23.13,13.9-27.08,54.21"/><polygon class="cls-17" points="97.95 8.03 137.02 8.03 118.79 96.05 72.7 96.05 97.95 8.03"/><polygon class="cls-10" points="137.02 8.03 137.02 98.32 115.61 98.32 137.02 8.03"/><polygon class="cls-18" points="144.85 40.24 214.66 40.24 182.08 100.22 99.73 100.22 144.85 40.24"/><polygon class="cls-10" points="214.66 40.13 214.66 101.66 168.26 101.66 214.66 40.13"/><polygon class="cls-11" points="147.09 51.62 141.77 51.62 148.33 43.92 153.65 43.92 147.09 51.62"/><polygon class="cls-11" points="157.45 51.62 152.13 51.62 158.69 43.92 164.01 43.92 157.45 51.62"/><polygon class="cls-11" points="167.81 51.62 162.49 51.62 169.05 43.92 174.37 43.92 167.81 51.62"/><polygon class="cls-11" points="178.16 51.62 172.84 51.62 179.41 43.92 184.73 43.92 178.16 51.62"/><polygon class="cls-11" points="188.52 51.62 183.2 51.62 189.77 43.92 195.09 43.92 188.52 51.62"/><polygon class="cls-11" points="198.88 51.62 193.56 51.62 200.13 43.92 205.45 43.92 198.88 51.62"/><polygon class="cls-11" points="137.58 63.4 132.26 63.4 138.82 55.7 144.14 55.7 137.58 63.4"/><polygon class="cls-11" points="147.94 63.4 142.62 63.4 149.18 55.7 154.5 55.7 147.94 63.4"/><polygon class="cls-11" points="158.3 63.4 152.97 63.4 159.54 55.7 164.86 55.7 158.3 63.4"/><polygon class="cls-11" points="168.66 63.4 163.33 63.4 169.9 55.7 175.22 55.7 168.66 63.4"/><polygon class="cls-11" points="179.01 63.4 173.69 63.4 180.26 55.7 185.58 55.7 179.01 63.4"/><polygon class="cls-11" points="189.37 63.4 184.05 63.4 190.62 55.7 195.94 55.7 189.37 63.4"/><polygon class="cls-11" points="127.84 75.85 122.52 75.85 129.09 68.15 134.41 68.15 127.84 75.85"/><polygon class="cls-11" points="138.2 75.85 132.88 75.85 139.44 68.15 144.77 68.15 138.2 75.85"/><polygon class="cls-11" points="148.56 75.85 143.24 75.85 149.81 68.15 155.13 68.15 148.56 75.85"/><polygon class="cls-11" points="158.92 75.85 153.6 75.85 160.16 68.15 165.49 68.15 158.92 75.85"/><polygon class="cls-11" points="169.28 75.85 163.96 75.85 170.52 68.15 175.84 68.15 169.28 75.85"/><polygon class="cls-11" points="179.64 75.85 174.32 75.85 180.88 68.15 186.2 68.15 179.64 75.85"/><polygon class="cls-11" points="118.33 88.87 113.01 88.87 119.58 81.17 124.9 81.17 118.33 88.87"/><polygon class="cls-11" points="128.69 88.87 123.37 88.87 129.94 81.17 135.26 81.17 128.69 88.87"/><polygon class="cls-11" points="139.05 88.87 133.73 88.87 140.29 81.17 145.62 81.17 139.05 88.87"/><polygon class="cls-11" points="149.41 88.87 144.09 88.87 150.65 81.17 155.97 81.17 149.41 88.87"/><polygon class="cls-11" points="159.77 88.87 154.45 88.87 161.01 81.17 166.33 81.17 159.77 88.87"/><polygon class="cls-11" points="170.13 88.87 164.81 88.87 171.37 81.17 176.69 81.17 170.13 88.87"/><line class="cls-3" x1="214.68" y1="47.77" x2="181.05" y2="93.96"/><polygon class="cls-11" points="87.65 88.19 81.31 88.19 102.71 14.82 109.05 14.82 87.65 88.19"/><polygon class="cls-11" points="98.18 88.19 91.84 88.19 113.24 14.82 119.58 14.82 98.18 88.19"/><polygon class="cls-11" points="108.71 88.19 102.37 88.19 123.77 14.82 130.1 14.82 108.71 88.19"/><circle class="cls-15" cx="29.79" cy="21.14" r="4.65"/><circle class="cls-15" cx="39.44" cy="11.26" r="4.65"/><circle class="cls-15" cx="39.75" cy="47.92" r="4.65"/><path class="cls-16" d="M40.06,11.71s44.35,19.51,34.2,82.63"/><path class="cls-16" d="M39.88,47.91s27.88,12.26,34.37,48.8"/><path class="cls-16" d="M30.78,21.55s32.8,9.55,44.68,61.28"/><path class="cls-19" d="M370,209.73s4.84-70.44,26-70.44c18.44,0,20.25,57.53,70.44,57.53,36.28,0,41.53-20.35,48-20.35,5.44,0,5,5.68,5,14.92v18.34Z"/><g class="cls-20"><path class="cls-21" d="M379.88,207.69s4.27-62,22.91-62c16.24,0,17.84,50.67,62,50.67,32,0,36.57-17.92,42.25-17.92,4.79,0,4.45,5,4.45,13.14v16.15Z"/><path class="cls-21" d="M363.65,207.69s6.42-82.56,41.31-82.56c24.83,0,16.73,57,60.93,57,28.77,0,36.43-22.29,47.14-22.29,10.45,0,8.44,12.22,8.44,20.35v27.46Z"/><path class="cls-21" d="M392.14,207.69s3.54-40.21,12.59-40.21c9.51,0,13,40.21,48.79,40.21"/></g><path class="cls-22" d="M307.09,296.63a108.3,108.3,0,0,1-1.85,20H90.9a109,109,0,1,1,216.19-20Z"/><path class="cls-23" d="M290,249.44a85.52,85.52,0,0,0-63.38-28.16c-47.73,0-86.41,39.36-86.41,87.94,0,2.15.08,4.26.23,6.36H96.67a107.82,107.82,0,0,1-1.73-19.24c0-57.87,46.08-104.77,102.93-104.77C238.16,191.57,273.05,215.12,290,249.44Z"/><path class="cls-24" d="M384.73,125s14.59,9.3,14.59,52.78v59.3"/><path class="cls-24" d="M481.36,178.91c6.33,9.64,12.67,25.53,12.67,32v11"/><path class="cls-25" d="M518.17,170.23S494,206.47,494,217.52"/><path class="cls-25" d="M371,154.83s28.34,30.26,28.34,63.31"/><path class="cls-25" d="M454.5,174.27s-3,40.72-26.95,62.78"/><path class="cls-24" d="M430.5,133s-29.89,29.36-31.18,44.84"/><path class="cls-12" d="M397.53,153.25s-14.9-7-15.18-18.17a37.77,37.77,0,0,1,1.7-12.32,33.17,33.17,0,0,1,10.4,7C401.49,137,397.53,153.25,397.53,153.25Z"/><path class="cls-12" d="M432.38,134.34a39.25,39.25,0,0,1-2.05,11.57c-3.26,9.22-16.23,14.06-21.85,15.76-1.61.49-2.61.72-2.61.72s-.48-20.47,11.79-27a47.19,47.19,0,0,1,14.65-4.94A35.24,35.24,0,0,1,432.38,134.34Z"/><path class="cls-12" d="M391.5,183.91s-18.06-4.82-20.62-17.24a43,43,0,0,1-.58-14.11,37.79,37.79,0,0,1,13,5.69C392.65,165,391.5,183.91,391.5,183.91Z"/><path class="cls-12" d="M493.15,205.11s5-15.12-2.7-22.73a36.44,36.44,0,0,0-9.78-7,32.05,32.05,0,0,0-2,11.93C479.11,197.11,493.15,205.11,493.15,205.11Z"/><path class="cls-12" d="M503,195.37s15.82-5.23,17.46-16.41a38.12,38.12,0,0,0-.22-12.58,33.42,33.42,0,0,0-11.29,5.74C501,178.57,503,195.37,503,195.37Z"/><path class="cls-12" d="M446.39,209s-8.56-16.3-1.27-26.44a42.31,42.31,0,0,1,9.83-9.84,37,37,0,0,1,4.57,13.23C460.88,197.15,446.39,209,446.39,209Z"/><path class="cls-12" d="M417.39,169.84a33.23,33.23,0,0,1,7.87,6c5.63,6.06,4.17,17.68,3.25,22.55-.27,1.39-.49,2.23-.49,2.23S412.5,193,412.43,181.28a39.52,39.52,0,0,1,2-12.91A29,29,0,0,1,417.39,169.84Z"/><path class="cls-24" d="M415.37,170.63s10.29,33.89,21.38,40.92"/><circle class="cls-26" cx="366.38" cy="188.31" r="3.06"/><circle class="cls-26" cx="408.84" cy="125.59" r="3.06"/><circle class="cls-26" cx="499.2" cy="168.58" r="3.06"/><circle class="cls-26" cx="436.01" cy="184.91" r="3.06"/><circle class="cls-26" cx="522.03" cy="200.97" r="3.06"/></g><g id="Front_structure" data-name="Front structure"><line class="cls-3" x1="203.8" y1="114.83" x2="384.15" y2="219.1"/><path class="cls-2" d="M220.51,100.13c0,16.91-40.58,30.62-77.65,30.62-44.33,0-77.65-13.71-77.65-30.62Z"/><path class="cls-9" d="M220.51,100.13c0,12.85-23.44,23.85-51,28.39l.38-.16c8-3.45,6.2-19.91-2.16-19.91H68a14.49,14.49,0,0,1-2.8-8.32Z"/><path class="cls-8" d="M47.18,93.62H238.53a0,0,0,0,1,0,0v.43a6.42,6.42,0,0,1-6.42,6.42H53.61a6.42,6.42,0,0,1-6.42-6.42v-.43a0,0,0,0,1,0,0Z"/><rect class="cls-27" x="47.18" y="93.62" width="191.35" height="1.61"/><path class="cls-8" d="M525.17,213.74c0,17.84-42.81,32.3-81.91,32.3-46.77,0-81.91-14.46-81.91-32.3Z"/><path class="cls-9" d="M525.17,213.74c0,13.55-24.72,25.16-53.76,29.95l.4-.17c8.43-3.64,6.55-21-2.27-21H364.3a15.3,15.3,0,0,1-2.95-8.78Z"/><path class="cls-8" d="M342.33,206.88H544.18a0,0,0,0,1,0,0v.46a6.77,6.77,0,0,1-6.77,6.77H349.1a6.77,6.77,0,0,1-6.77-6.77v-.46A0,0,0,0,1,342.33,206.88Z"/><rect class="cls-27" x="342.33" y="206.88" width="201.85" height="1.69"/><path class="cls-2" d="M300.37,321.89c0,21.89-52.51,39.63-100.49,39.63-57.38,0-100.5-17.74-100.5-39.63Z"/><path class="cls-9" d="M300.37,321.89c0,16.63-30.33,30.87-66,36.75l.49-.21c10.33-4.47,8-25.76-2.79-25.76H103a18.81,18.81,0,0,1-3.63-10.78Z"/><path class="cls-8" d="M76,313.47H323.7a0,0,0,0,1,0,0v2.1a6.77,6.77,0,0,1-6.77,6.77H82.82A6.77,6.77,0,0,1,76,315.57v-2.1a0,0,0,0,1,0,0Z"/><rect class="cls-27" x="76.05" y="313.47" width="247.65" height="2.08"/><path class="cls-28" d="M46.23,392H243.1a26,26,0,0,0-25.94-25.66,25.1,25.1,0,0,0-4.5.4,36.2,36.2,0,0,0-33.71-23,35.52,35.52,0,0,0-12,2.1,50.21,50.21,0,0,0-84.54,18.39,29.86,29.86,0,0,0-7.35-.94A28.74,28.74,0,0,0,46.23,392Z"/><path class="cls-29" d="M.05,398.11h145A19.12,19.12,0,0,0,126,379.21a18.38,18.38,0,0,0-3.32.29,26.65,26.65,0,0,0-24.83-16.94A26.1,26.1,0,0,0,89,364.11a37,37,0,0,0-62.27,13.54,22,22,0,0,0-5.42-.69A21.17,21.17,0,0,0,.05,398.1Z"/><circle class="cls-30" cx="263.96" cy="84.02" r="2.65"/><circle class="cls-30" cx="514.59" cy="287.34" r="2.65"/><circle class="cls-30" cx="480.65" cy="134.83" r="2.65"/><circle class="cls-30" cx="300.03" cy="355.86" r="2.65"/><circle class="cls-30" cx="320.07" cy="260.41" r="2.65"/><circle class="cls-30" cx="69.97" cy="21.23" r="2.65"/><circle class="cls-30" cx="111.02" cy="148.19" r="2.65"/><circle class="cls-30" cx="54.91" cy="320.75" r="2.65"/></g></g></svg>