<svg xmlns="http://www.w3.org/2000/svg" xmlns:xlink="http://www.w3.org/1999/xlink" viewBox="0 0 1920 1080"><defs><style>.cls-1,.cls-28,.cls-29,.cls-47,.cls-68,.cls-73,.cls-78,.cls-80,.cls-81,.cls-83,.cls-85,.cls-86,.cls-87,.cls-88,.cls-89,.cls-94{fill:none;}.cls-2{isolation:isolate;}.cls-3,.cls-34{fill:#13aa52;}.cls-3{opacity:0.29;}.cls-4{fill:#136149;}.cls-5{fill:url(#linear-gradient);}.cls-6{fill:#a49437;}.cls-7{fill:url(#linear-gradient-2);}.cls-8{fill:url(#linear-gradient-3);}.cls-9{fill:url(#linear-gradient-4);}.cls-10{fill:url(#linear-gradient-5);}.cls-11,.cls-91{fill:#fff;}.cls-12{fill:url(#linear-gradient-6);}.cls-13{fill:url(#linear-gradient-7);}.cls-14{fill:url(#linear-gradient-8);}.cls-15{fill:url(#linear-gradient-9);}.cls-16{fill:url(#linear-gradient-10);}.cls-17{fill:url(#linear-gradient-11);}.cls-18{fill:url(#linear-gradient-12);}.cls-19{fill:url(#linear-gradient-13);}.cls-20{fill:url(#linear-gradient-14);}.cls-21{fill:url(#linear-gradient-15);}.cls-22{fill:#f7a76f;}.cls-23{fill:#ef8f9d;}.cls-24{fill:#09804c;}.cls-25{opacity:0.3;mix-blend-mode:multiply;}.cls-26{fill:#4f4fbf;}.cls-27{fill:url(#linear-gradient-16);}.cls-28,.cls-47,.cls-73,.cls-78,.cls-90{stroke:#ffe1ea;}.cls-28,.cls-29,.cls-94{stroke-linecap:round;}.cls-28,.cls-29,.cls-78,.cls-80,.cls-81,.cls-83,.cls-85,.cls-86,.cls-87,.cls-88,.cls-89,.cls-94{stroke-linejoin:round;}.cls-29{stroke:#f9d3c5;}.cls-29,.cls-73{mix-blend-mode:lighten;}.cls-30{fill:#f97216;}.cls-31{fill:#cf4a22;}.cls-32,.cls-90{fill:#9795f9;}.cls-33{fill:#6e60f9;}.cls-35{fill:url(#linear-gradient-17);}.cls-36{fill:url(#linear-gradient-18);}.cls-37{fill:url(#linear-gradient-19);}.cls-38{fill:url(#linear-gradient-20);}.cls-39{fill:url(#linear-gradient-21);}.cls-40{fill:url(#linear-gradient-22);}.cls-41{fill:url(#linear-gradient-23);}.cls-42{fill:url(#linear-gradient-24);}.cls-43{fill:url(#linear-gradient-25);}.cls-44{fill:url(#linear-gradient-26);}.cls-45{fill:#2f9fc5;}.cls-46{fill:#570b08;}.cls-47,.cls-68,.cls-73,.cls-90{stroke-miterlimit:10;}.cls-48{fill:url(#linear-gradient-27);}.cls-49{fill:url(#linear-gradient-28);}.cls-50{fill:url(#linear-gradient-29);}.cls-51{fill:url(#linear-gradient-30);}.cls-52{fill:url(#linear-gradient-31);}.cls-53{fill:url(#linear-gradient-32);}.cls-54{fill:url(#linear-gradient-33);}.cls-55{fill:url(#linear-gradient-34);}.cls-56{fill:#28180a;}.cls-57{fill:#1a567e;}.cls-58{fill:#007cad;}.cls-59{fill:#fef7e3;}.cls-60{fill:#83dba7;}.cls-61{fill:#503014;}.cls-62{fill:#8f221b;}.cls-63{fill:#ffeb99;}.cls-64{fill:#8d5524;}.cls-65{fill:#7dc5db;}.cls-66{fill:#0d324f;}.cls-67{fill:#c5e4f2;}.cls-68{stroke:#c5e4f2;}.cls-69{fill:#f9d3c5;}.cls-70{fill:#ffc6be;}.cls-71{fill:#e8a1a5;}.cls-72{fill:#6a401b;}.cls-74{fill:url(#radial-gradient);}.cls-75{fill:url(#radial-gradient-2);}.cls-76{fill:url(#radial-gradient-3);}.cls-77{fill:#0b3b35;}.cls-77,.cls-91{opacity:0.45;}.cls-79{fill:#f4bdca;}.cls-80{stroke:#cf4a22;}.cls-81{stroke:#fef2c8;}.cls-82{fill:#e1f2f6;}.cls-83{stroke:#136149;}.cls-84{clip-path:url(#clip-path);}.cls-85,.cls-94{stroke:#fef7e3;}.cls-85,.cls-86,.cls-87,.cls-88,.cls-89{stroke-width:2px;}.cls-86{stroke:#f7a76f;}.cls-87{stroke:#83dba7;}.cls-88{stroke:#7dc5db;}.cls-89{stroke:#ef8f9d;}.cls-92{fill:url(#linear-gradient-35);}.cls-93{fill:url(#linear-gradient-36);}</style><linearGradient id="linear-gradient" x1="1300.37" y1="865.78" x2="1453.63" y2="600.32" gradientUnits="userSpaceOnUse"><stop offset="0" stop-color="#f4bdca"/><stop offset="0.28" stop-color="#f4b8c6"/><stop offset="0.6" stop-color="#f2abb9"/><stop offset="0.92" stop-color="#f095a3"/><stop offset="1" stop-color="#ef8f9d"/></linearGradient><linearGradient id="linear-gradient-2" x1="313.91" y1="704.64" x2="671.3" y2="704.64" gradientUnits="userSpaceOnUse"><stop offset="0.02" stop-color="#d83a6c"/><stop offset="0.17" stop-color="#dd4b76"/><stop offset="0.53" stop-color="#e7708b"/><stop offset="0.82" stop-color="#ed8798"/><stop offset="1" stop-color="#ef8f9d"/></linearGradient><linearGradient id="linear-gradient-3" x1="-6697.31" y1="1795.28" x2="-6697.31" y2="1959.69" gradientTransform="translate(-6391.28 2394) rotate(180)" gradientUnits="userSpaceOnUse"><stop offset="0" stop-color="#c5e4f2" stop-opacity="0"/><stop offset="0.26" stop-color="#c5e4f2" stop-opacity="0.01"/><stop offset="0.44" stop-color="#c5e4f2" stop-opacity="0.05"/><stop offset="0.6" stop-color="#c5e4f2" stop-opacity="0.11"/><stop offset="0.75" stop-color="#c5e4f2" stop-opacity="0.2"/><stop offset="0.88" stop-color="#c5e4f2" stop-opacity="0.32"/><stop offset="1" stop-color="#c5e4f2" stop-opacity="0.45"/></linearGradient><linearGradient id="linear-gradient-4" x1="-8003.59" y1="1297.47" x2="-8033" y2="1483.11" gradientTransform="translate(-6391.28 2394) rotate(180)" gradientUnits="userSpaceOnUse"><stop offset="0" stop-color="#c5e4f2" stop-opacity="0"/><stop offset="0.26" stop-color="#c5e4f2" stop-opacity="0"/><stop offset="0.27" stop-color="#c5e4f2" stop-opacity="0"/><stop offset="0.39" stop-color="#c5e4f2" stop-opacity="0.04"/><stop offset="0.6" stop-color="#c5e4f2" stop-opacity="0.16"/><stop offset="0.86" stop-color="#c5e4f2" stop-opacity="0.34"/><stop offset="1" stop-color="#c5e4f2" stop-opacity="0.45"/></linearGradient><linearGradient id="linear-gradient-5" x1="1160.85" y1="1601.06" x2="1160.85" y2="1740.44" gradientTransform="matrix(1, 0, 0, -1, 564, 2394)" gradientUnits="userSpaceOnUse"><stop offset="0" stop-color="#c5e4f2" stop-opacity="0"/><stop offset="0.17" stop-color="#c5e4f2" stop-opacity="0.02"/><stop offset="0.37" stop-color="#c5e4f2" stop-opacity="0.08"/><stop offset="0.59" stop-color="#c5e4f2" stop-opacity="0.18"/><stop offset="0.81" stop-color="#c5e4f2" stop-opacity="0.31"/><stop offset="1" stop-color="#c5e4f2" stop-opacity="0.45"/></linearGradient><linearGradient id="linear-gradient-6" x1="228.41" y1="730.11" x2="466.79" y2="730.11" gradientUnits="userSpaceOnUse"><stop offset="0" stop-color="#f97216"/><stop offset="1" stop-color="#ef8f9d"/></linearGradient><linearGradient id="linear-gradient-7" x1="907.87" y1="632.16" x2="892.51" y2="650.47" gradientUnits="userSpaceOnUse"><stop offset="0" stop-color="#f4bdca"/><stop offset="0.07" stop-color="#f3b7c4"/><stop offset="0.4" stop-color="#f1a1af"/><stop offset="0.72" stop-color="#ef94a1"/><stop offset="1" stop-color="#ef8f9d"/></linearGradient><linearGradient id="linear-gradient-8" x1="906.31" y1="610" x2="894.07" y2="624.59" xlink:href="#linear-gradient-7"/><linearGradient id="linear-gradient-9" x1="904.7" y1="591.86" x2="895.69" y2="602.6" xlink:href="#linear-gradient-7"/><linearGradient id="linear-gradient-10" x1="944.61" y1="650.79" x2="958.23" y2="634.56" gradientUnits="userSpaceOnUse"><stop offset="0.02" stop-color="#d83a6c"/><stop offset="0.37" stop-color="#d93c6d"/><stop offset="0.55" stop-color="#db4472"/><stop offset="0.7" stop-color="#de527a"/><stop offset="0.83" stop-color="#e46585"/><stop offset="0.94" stop-color="#ea7d93"/><stop offset="1" stop-color="#ef8f9d"/></linearGradient><linearGradient id="linear-gradient-11" x1="946.04" y1="624.97" x2="956.79" y2="612.16" xlink:href="#linear-gradient-10"/><linearGradient id="linear-gradient-12" x1="921.27" y1="605.98" x2="936.63" y2="587.68" gradientUnits="userSpaceOnUse"><stop offset="0" stop-color="#f97216"/><stop offset="0.08" stop-color="#f9751e"/><stop offset="0.21" stop-color="#f87f34"/><stop offset="0.36" stop-color="#f78e58"/><stop offset="0.54" stop-color="#f6a38a"/><stop offset="0.74" stop-color="#f4bdca"/><stop offset="1" stop-color="#f4bdca"/></linearGradient><linearGradient id="linear-gradient-13" x1="922.14" y1="577.92" x2="935.76" y2="561.69" xlink:href="#linear-gradient-12"/><linearGradient id="linear-gradient-14" x1="923.57" y1="552.11" x2="934.32" y2="539.29" xlink:href="#linear-gradient-12"/><linearGradient id="linear-gradient-15" x1="943.74" y1="678.85" x2="959.1" y2="660.55" xlink:href="#linear-gradient-10"/><linearGradient id="linear-gradient-16" x1="228.41" y1="752.08" x2="376.4" y2="752.08" xlink:href="#linear-gradient"/><linearGradient id="linear-gradient-17" x1="405.64" y1="461.9" x2="454.08" y2="461.9" xlink:href="#linear-gradient-7"/><linearGradient id="linear-gradient-18" x1="405.64" y1="501.58" x2="454.08" y2="501.58" xlink:href="#linear-gradient-7"/><linearGradient id="linear-gradient-19" x1="360.38" y1="521.33" x2="404.93" y2="521.33" xlink:href="#linear-gradient-7"/><linearGradient id="linear-gradient-20" x1="409" y1="565.79" x2="453.56" y2="565.79" xlink:href="#linear-gradient-7"/><linearGradient id="linear-gradient-21" x1="1617.48" y1="788.32" x2="1617.48" y2="733.2" gradientUnits="userSpaceOnUse"><stop offset="0" stop-color="#ffddab" stop-opacity="0.55"/><stop offset="1" stop-color="#fff" stop-opacity="0"/></linearGradient><linearGradient id="linear-gradient-22" x1="1506.72" y1="788.32" x2="1506.72" y2="733.2" xlink:href="#linear-gradient-21"/><linearGradient id="linear-gradient-23" x1="1393.43" y1="788.32" x2="1393.43" y2="733.2" xlink:href="#linear-gradient-21"/><linearGradient id="linear-gradient-24" x1="624.45" y1="788.32" x2="624.45" y2="733.2" xlink:href="#linear-gradient-21"/><linearGradient id="linear-gradient-25" x1="513.7" y1="788.32" x2="513.7" y2="733.2" xlink:href="#linear-gradient-21"/><linearGradient id="linear-gradient-26" x1="400.41" y1="788.32" x2="400.41" y2="733.2" xlink:href="#linear-gradient-21"/><linearGradient id="linear-gradient-27" x1="914.52" y1="477.39" x2="888.13" y2="467.78" gradientUnits="userSpaceOnUse"><stop offset="0" stop-color="#4f4fbf" stop-opacity="0"/><stop offset="0.05" stop-color="#4f4fbf" stop-opacity="0.07"/><stop offset="0.3" stop-color="#4f4fbf" stop-opacity="0.4"/><stop offset="0.53" stop-color="#4f4fbf" stop-opacity="0.66"/><stop offset="0.73" stop-color="#4f4fbf" stop-opacity="0.84"/><stop offset="0.89" stop-color="#4f4fbf" stop-opacity="0.96"/><stop offset="1" stop-color="#4f4fbf"/></linearGradient><linearGradient id="linear-gradient-28" x1="935.71" y1="432.73" x2="909.32" y2="423.12" xlink:href="#linear-gradient-27"/><linearGradient id="linear-gradient-29" x1="888.24" y1="527.25" x2="861.85" y2="517.64" xlink:href="#linear-gradient-27"/><linearGradient id="linear-gradient-30" x1="861.96" y1="577.1" x2="835.57" y2="567.5" xlink:href="#linear-gradient-27"/><linearGradient id="linear-gradient-31" x1="835.68" y1="626.96" x2="809.29" y2="617.36" xlink:href="#linear-gradient-27"/><linearGradient id="linear-gradient-32" x1="809.4" y1="676.82" x2="783.01" y2="667.21" xlink:href="#linear-gradient-27"/><linearGradient id="linear-gradient-33" x1="783.12" y1="726.68" x2="756.73" y2="717.07" xlink:href="#linear-gradient-27"/><linearGradient id="linear-gradient-34" x1="756.84" y1="776.53" x2="730.45" y2="766.93" xlink:href="#linear-gradient-27"/><radialGradient id="radial-gradient" cx="1710.74" cy="522.66" r="35.5" xlink:href="#linear-gradient-21"/><radialGradient id="radial-gradient-2" cx="808.8" cy="102.47" r="35.5" xlink:href="#linear-gradient-21"/><radialGradient id="radial-gradient-3" cx="112.51" cy="764.48" r="35.5" xlink:href="#linear-gradient-21"/><clipPath id="clip-path"><path class="cls-1" d="M1395.68,214.49c-203.92,0-134,246.41-349.15,246.41-84.24,0-146.86-100.39-198.58-183.35C761.14,138.34,682.12,105.78,595.84,100.7,437.37,91.38,306,230.49,306,390.59V787.05c159.9,0,1183.61-7,1295.68-7,0,0-2.56-206.4-2.56-318.73C1599.08,282,1508,214.49,1395.68,214.49Z"/></clipPath><linearGradient id="linear-gradient-35" x1="329.02" y1="458.96" x2="499.86" y2="458.96" gradientUnits="userSpaceOnUse"><stop offset="0" stop-color="#9795f9" stop-opacity="0"/><stop offset="0.18" stop-color="#a69bf2" stop-opacity="0.13"/><stop offset="0.59" stop-color="#cbabdf" stop-opacity="0.45"/><stop offset="1" stop-color="#f4bdca" stop-opacity="0.8"/></linearGradient><linearGradient id="linear-gradient-36" x1="1444.32" y1="509.37" x2="1581.08" y2="509.37" gradientUnits="userSpaceOnUse"><stop offset="0" stop-color="#f4bdca" stop-opacity="0.8"/><stop offset="0.41" stop-color="#cbabdf" stop-opacity="0.45"/><stop offset="0.82" stop-color="#a69bf2" stop-opacity="0.13"/><stop offset="1" stop-color="#9795f9" stop-opacity="0"/></linearGradient></defs><g class="cls-2"><g id="Plants"><path class="cls-3" d="M1177.45,836.84h-89.63l29-212.29,5.85-42.75c.54-4.64,1-8.7,2.33-11.59s3.55-4.63,7.58-4.63c8.06,0,8.86,6.93,9.91,16.22l26.91,196.56Z"/><path class="cls-4" d="M1169.45,778.36c-19.26-26.78-35.59-63.68-45.17-105.94a347.32,347.32,0,0,1-7.41-47.87l5.85-42.75c.54-4.64,1-8.7,2.33-11.59s3.55-4.63,7.58-4.63c8.06,0,8.86,6.93,9.91,16.22Z"/><path class="cls-3" d="M669.77,816.82H502.17l35.64-193L560.9,498.75l6.54-35.46c1-6.5,2.32-13.06,5-18S579.36,437,586,437c14,0,16.57,13.25,18.54,26.25L633.64,621.1Z"/><path class="cls-4" d="M667.15,802.62c-71.62,3.87-103.51-252.11-106.25-303.87l6.54-35.46c1-6.5,2.32-13.06,5-18S579.36,437,586,437c14,0,16.57,13.25,18.54,26.25Z"/><path class="cls-3" d="M1271.52,825.82h-145.6l31-167.68,20.06-108.66,5.68-30.8c.86-5.65,2-11.35,4.39-15.65s6-7.16,11.71-7.16c12.21,0,14.39,11.51,16.1,22.81l25.32,137.1Z"/><path class="cls-4" d="M1269.24,813.48c-62.21,3.37-89.92-219-92.3-264l5.68-30.8c.86-5.65,2-11.35,4.39-15.65s6-7.16,11.71-7.16c12.21,0,14.39,11.51,16.1,22.81Z"/><path class="cls-3" d="M546.66,815.78H443.5l33.44-244.35,6.74-49.21c.61-5.34,1.14-10,2.67-13.34s4.08-5.33,8.72-5.33c9.28,0,10.2,8,11.41,18.67l31,226.24Z"/><path class="cls-4" d="M537.45,748.46c-22.17-30.82-41-73.29-52-121.93a397.69,397.69,0,0,1-8.53-55.1l6.74-49.21c.61-5.34,1.14-10,2.67-13.34s4.08-5.33,8.72-5.33c9.28,0,10.2,8,11.41,18.67Z"/><path class="cls-5" d="M1577.73,779.65H1154.27a11.34,11.34,0,0,1-11.37-12.06,162.75,162.75,0,0,1,3.73-24.67l86.42-6.4-80.41-13.81a179.64,179.64,0,0,1,29.6-51.43l141,78.74-96.44-119.23a236.85,236.85,0,0,1,70.57-32.25L1351,728.91V589.82q7.47-.44,15-.44a263.68,263.68,0,0,1,27.58,1.43l-7.94,58.49,31.86-54.82a246.23,246.23,0,0,1,35,9.69l-53.73,121.3,88.58-105.61a216.65,216.65,0,0,1,51.5,39.18l-56.16,53.67,69.59-38.23c13.31,17,23.49,39.7,29.8,60L1428,748l121.65,22.73c1.06.12,25.11,2.32,25.19,3.39,0,0,7.33.37,14.23-6.57C1593.71,763,1584.27,779.65,1577.73,779.65Z"/><path class="cls-6" d="M1577.73,779.65H1154.27a11.35,11.35,0,0,1-11.37-12.06,162.76,162.76,0,0,1,3.74-24.67l86.41-6.41-80.41-13.8a179.59,179.59,0,0,1,29.61-51.44l141,78.75-64.4-79.62c29.07,17.65,56.85,29.59,83.33,37.09,3,.84,5.89,1.62,8.81,2.35a275,275,0,0,0,51.3,7.84l3,.15a296.13,296.13,0,0,0,80.19-7.69l3.48-.82c25.79-6.2,49.07-15.34,70.87-24.23,9.45,14.09,17.36,33.36,22.34,49.4L1428,748l121.65,22.74c0,.63,9.54,3.51,9.58,4.14C1559.74,781.44,1584.27,779.65,1577.73,779.65Z"/><path class="cls-7" d="M662.17,780.83H323a9.08,9.08,0,0,1-9.1-9.66,130.79,130.79,0,0,1,3-19.76l69.21-5.13-64.4-11A144,144,0,0,1,345.44,694l35.67-32.43a190.07,190.07,0,0,1,56.52-25.83l42.93,104.41V628.8q6-.34,12-.35a214.39,214.39,0,0,1,22.1,1.14l-6.37,46.84,25.52-43.9a197.25,197.25,0,0,1,28.06,7.76l-43,97.15,70.94-84.58a173,173,0,0,1,41.24,31.38l-45,43,55.73-30.62a141.93,141.93,0,0,1,23.86,45.13l-123.4,13.78,128.88,14.17c0,.5.08,1,.11,1.49A9.08,9.08,0,0,1,662.17,780.83Z"/><path class="cls-8" d="M46.22,598.72H565.83A68.53,68.53,0,0,0,497.37,531a65.09,65.09,0,0,0-11.9,1,95.45,95.45,0,0,0-88.87-60.69,93.25,93.25,0,0,0-31.78,5.46,132.54,132.54,0,0,0-223.13,48.54,77.37,77.37,0,0,0-19.4-2.48,75.89,75.89,0,0,0-76.07,75.7Z"/><path class="cls-9" d="M1372.83,1058.6H1864.7a64.81,64.81,0,0,0-64.81-64.11,61.41,61.41,0,0,0-11.24,1A90.4,90.4,0,0,0,1704.44,938a88.51,88.51,0,0,0-30.1,5.26,125.45,125.45,0,0,0-211.2,45.94,73.91,73.91,0,0,0-18.37-2.35,71.82,71.82,0,0,0-71.94,71.69Z"/><path class="cls-10" d="M1906.55,790.46a58.06,58.06,0,0,0-86.72-50.55,102.23,102.23,0,0,0-200.93-5.59,60.39,60.39,0,0,0-75.74,58.62"/><circle class="cls-11" cx="198.27" cy="674.09" r="5.31"/><circle class="cls-11" cx="1798.73" cy="537.33" r="5.31"/><circle class="cls-11" cx="1245.58" cy="245.41" r="5.31"/><circle class="cls-11" cx="1225.21" cy="166.29" r="5.31"/><circle class="cls-11" cx="1136.12" cy="316.26" r="5.31"/><circle class="cls-11" cx="873.06" cy="157.65" r="5.31"/><circle class="cls-11" cx="201.7" cy="375.02" r="5.31"/><circle class="cls-11" cx="1704.48" cy="632.77" r="5.31"/><circle class="cls-11" cx="1238.64" cy="466.35" r="5.31"/><circle class="cls-11" cx="91.46" cy="487.62" r="5.31"/><circle class="cls-11" cx="250.5" cy="406.22" r="5.31"/><circle class="cls-11" cx="674.97" cy="475.94" r="5.31"/><circle class="cls-11" cx="835.89" cy="740.67" r="5.31"/><path class="cls-12" d="M466.79,780.83H228.41a87.28,87.28,0,0,1,3.69-25.14l66.36,12.57-51.6-41.67a111.14,111.14,0,0,1,30.87-28l41,57.15-21.39-67a136.27,136.27,0,0,1,50.22-9.42,139.42,139.42,0,0,1,29.64,3.16l-9.66,56.71,39.21-46.49a118.2,118.2,0,0,1,29.76,20.54l-27.62,25.48,34.57-18.2a100.33,100.33,0,0,1,9.82,13.36L394.8,768.26l67-16.58A87.51,87.51,0,0,1,466.79,780.83Z"/><circle class="cls-13" cx="900.19" cy="641.32" r="11.95"/><circle class="cls-14" cx="900.19" cy="617.29" r="9.52"/><circle class="cls-15" cx="900.19" cy="597.23" r="7.01"/><circle class="cls-16" cx="951.42" cy="642.67" r="10.59"/><circle class="cls-17" cx="951.42" cy="618.57" r="8.36"/><circle class="cls-18" cx="928.95" cy="596.83" r="11.95"/><circle class="cls-19" cx="928.95" cy="569.81" r="10.59"/><circle class="cls-20" cx="928.95" cy="545.7" r="8.36"/><circle class="cls-21" cx="951.42" cy="669.7" r="11.95"/><path class="cls-22" d="M1101.69,739s14-42.57-7.6-64a102.78,102.78,0,0,0-27.56-19.64s-6.45,16-5.64,33.6C1062.15,716.44,1101.69,739,1101.69,739Z"/><path class="cls-23" d="M1539.55,523.58s-41.21-16.26-43.87-46.2a101.8,101.8,0,0,1,2.47-33.36s16.23,5.19,29.11,16.93C1547.38,479.29,1539.55,523.58,1539.55,523.58Z"/><path class="cls-23" d="M1588.06,660.65s-1.43-38.28,21.35-50.79a88,88,0,0,1,27.29-9.62s1.52,14.65-3.31,28.93C1625.86,651.48,1588.06,660.65,1588.06,660.65Z"/><path class="cls-6" d="M1043.48,550.21s-42-19.73-42.76-51.18a106.49,106.49,0,0,1,4.8-34.7s16.61,6.51,29.29,19.63C1054.61,504.45,1043.48,550.21,1043.48,550.21Z"/><path class="cls-24" d="M1122.34,713.47s44.54-14.73,49.15-46.23a107.61,107.61,0,0,0-.61-35.43s-17.47,4.52-31.8,16.17C1116.7,666.16,1122.34,713.47,1122.34,713.47Z"/><path class="cls-24" d="M1134.59,497.6a111,111,0,0,1-5.75,32.57c-9.2,26-45.73,39.61-61.54,44.39-4.53,1.38-7.35,2-7.35,2s-1.35-57.63,33.2-76a132.53,132.53,0,0,1,41.26-13.9A98.59,98.59,0,0,1,1134.59,497.6Z"/><path class="cls-23" d="M1026.5,636.56S975.64,623,968.41,588a121,121,0,0,1-1.63-39.72s19.87,3.91,36.68,16C1029.72,583.2,1026.5,636.56,1026.5,636.56Z"/><path class="cls-6" d="M1556.56,630.87s-49.66.66-65.17-29.27a114.16,114.16,0,0,1-11.63-35.67s19-1.51,37.41,5.19C1545.85,581.58,1556.56,630.87,1556.56,630.87Z"/><path class="cls-24" d="M1572.39,598.67s-21.34-44.86-.61-71.44a114,114,0,0,1,27.55-25.46s9.33,16.67,10.91,36.16C1612.71,568.36,1572.39,598.67,1572.39,598.67Z"/><g class="cls-25"><path class="cls-26" d="M924.19,538.82a8.36,8.36,0,0,0,9.22,13.95A15.42,15.42,0,0,1,924.19,538.82Z"/><path class="cls-26" d="M936.45,575.91a15.39,15.39,0,0,1-15.24-13.32,10.58,10.58,0,1,0,16.43,13.26C937.24,575.88,936.85,575.91,936.45,575.91Z"/><path class="cls-26" d="M936.45,605.05a15.4,15.4,0,0,1-15.4-15.4,14.75,14.75,0,0,1,.13-1.89A11.94,11.94,0,1,0,937.66,605C937.26,605,936.86,605.05,936.45,605.05Z"/><path class="cls-26" d="M945,613.18A8.36,8.36,0,0,0,957.74,624,15.38,15.38,0,0,1,945,613.18Z"/><path class="cls-26" d="M959.41,649.37a15.4,15.4,0,0,1-15.35-14.31,10.59,10.59,0,1,0,15.57,14.3Z"/><path class="cls-26" d="M960.17,675.94a15.4,15.4,0,0,1-15.4-15.4c0-.27,0-.53,0-.79a11.94,11.94,0,1,0,16.83,16.12C961.15,675.91,960.67,675.94,960.17,675.94Z"/><path class="cls-26" d="M894.31,633.15a15,15,0,0,1,.2-2.34,11.95,11.95,0,1,0,15.18,17.74A15.4,15.4,0,0,1,894.31,633.15Z"/><path class="cls-26" d="M894.36,609.78A9.51,9.51,0,1,0,907,623.93,15.39,15.39,0,0,1,894.36,609.78Z"/><path class="cls-26" d="M895.1,592.42a7,7,0,0,0,10,9.84A15.45,15.45,0,0,1,895.1,592.42Z"/></g><path class="cls-27" d="M376.4,780.83h-148a87.28,87.28,0,0,1,3.7-25.14l66.36,12.57-51.6-41.67c.82-1.11,1.66-2.19,2.55-3.27,18.88,5.41,40.94,15.74,69.35,32.45C336.63,766.27,356.35,774.46,376.4,780.83Z"/><path class="cls-6" d="M561.91,640.29l-33.62,75.9a168.88,168.88,0,0,1-47.74-31.78V628.8c4-.23,8-.35,12.06-.35a214,214,0,0,1,22.08,1.14l-6.36,46.84,25.52-43.91A198.23,198.23,0,0,1,561.91,640.29Z"/><path class="cls-6" d="M660.13,727c-38.59,8-83.93,8.41-125.63-8.19l55.31-65.95a173.5,173.5,0,0,1,41.25,31.37l-45,43,55.72-30.61A144.19,144.19,0,0,1,660.13,727Z"/><path class="cls-28" d="M1005.52,464.33S1046.6,490.52,1046.6,613V780"/><path class="cls-28" d="M1067.2,656.26c17.85,27.17,35.7,71.89,35.7,90.15v31.1"/><path class="cls-29" d="M1170.88,631.81s-68,102.07-68,133.18"/><path class="cls-29" d="M966.78,548.28s79.82,85.23,79.82,178.3"/><path class="cls-28" d="M1134.41,486.7S1050.24,569.38,1046.6,613"/><line class="cls-29" x1="900.19" y1="653.27" x2="900.19" y2="783.46"/><line class="cls-29" x1="951.61" y1="682.25" x2="951.61" y2="812.45"/><line class="cls-29" x1="928" y1="609.02" x2="928" y2="777.51"/><path class="cls-4" d="M903.07,783.46H893.8s-3.09-113.13-64.92-117.13c0,0,41-27.64,66.13,41.17C908,743,903.07,783.46,903.07,783.46Z"/><path class="cls-4" d="M948,783.56s7-61.31,35.53-66.48c-15.72,17-23.82,66.48-23.82,66.48Z"/><line class="cls-28" x1="1310.22" y1="552.36" x2="1310.22" y2="779.65"/><path class="cls-30" d="M1627,782.1h-253.1a92.68,92.68,0,0,1,3.92-26.7l70.46,13.36-57.79-47.57a117.75,117.75,0,0,1,32.78-29.69l41.34,52.91-10.93-59.59c10.24-10.77,30.86-15.43,49.9-15.43a148,148,0,0,1,31.48,3.35l-14.43,66.32,42.67-50.47a125.15,125.15,0,0,1,31.59,21.81L1580,728.24l22.22-10.11a105.39,105.39,0,0,1,10.42,14.18l-62.12,36.45,71.13-17.62A93,93,0,0,1,1627,782.1Z"/><path class="cls-31" d="M1612.67,732.31l-61.46,36.05c-45.13-15.49-80.13-47.21-94.42-86.41,11-8.74,29.51-12.56,46.77-12.56a148.52,148.52,0,0,1,31.46,3.35l-14.43,66.32,42.68-50.47a125.64,125.64,0,0,1,31.6,21.81L1580,728.24l22.23-10.11A104.76,104.76,0,0,1,1612.67,732.31Z"/><path class="cls-31" d="M1626.89,778.23q-6.44.43-13,.43a192.93,192.93,0,0,1-62.28-10.16l70.06-17.36A92.58,92.58,0,0,1,1626.89,778.23Z"/><path class="cls-32" d="M1310.22,552.36l-41.41-61.84s10.26,46.79,22.52,54.36C1304.49,553,1310.22,552.36,1310.22,552.36Z"/><path class="cls-22" d="M1310.22,552.36l-8.51-68.56S1283,509,1310.22,552.36Z"/><path class="cls-33" d="M1310.22,560.74l63.76-39.3S1335.83,517.19,1310.22,560.74Z"/><path class="cls-30" d="M1357.66,503.3l-47.44,57.44S1321.13,508.8,1357.66,503.3Z"/><path class="cls-4" d="M1310.22,569.81V552.36l-71.58-54.17s17.94,42.84,62.56,67.25Z"/><line class="cls-28" x1="1411.43" y1="494.55" x2="1411.43" y2="776.36"/><path class="cls-30" d="M1447.56,450.72l-44.51,53.9S1404.59,456.5,1447.56,450.72Z"/><path class="cls-33" d="M1403.05,504.62l59.83-36.87S1425.31,459.34,1403.05,504.62Z"/><path class="cls-32" d="M1417.3,495.54,1367,453.16s21.4,39.52,34.43,43.16a53.83,53.83,0,0,0,14.74,2.39A1.79,1.79,0,0,0,1417.3,495.54Z"/><path class="cls-22" d="M1415,499.51l-25.48-59.6S1379.22,467.5,1415,499.51Z"/><path class="cls-4" d="M1418.71,500.21a4,4,0,0,0,.36-4.65c-2-3.25-5.19-5.51-10.17-6.32-4.37-.71-53.16-19.53-53.16-19.53s7.75,21.8,46.17,35.2a15.23,15.23,0,0,0,16.8-4.7Z"/><path class="cls-28" d="M1499.54,446.33s59.71,94.7,59.71,157.91V776"/><path class="cls-28" d="M1559.25,660.65c0-19.93,40.08-158.88,40.08-158.88"/><path class="cls-28" d="M1636.7,600.24s-77.45,83.09-77.45,118.64"/><path class="cls-28" d="M1479.76,565.93s79.49,61.11,79.49,69.53"/><line class="cls-28" x1="432.19" y1="512.56" x2="432.19" y2="778.19"/><line class="cls-28" x1="386.23" y1="549.61" x2="386.23" y2="778.19"/><path class="cls-34" d="M428,512.56l18.75,28.61s5.41-11.44-.34-20.23S428,512.56,428,512.56Z"/><path class="cls-34" d="M415.64,542.49l16.55-29.93s-12.65.55-17.73,9.74S415.64,542.49,415.64,542.49Z"/><path class="cls-35" d="M454.08,464.55v1.34a11.06,11.06,0,0,1-6.17,9.92h0a39.65,39.65,0,0,1-35.86-.46l-.49-.26a11,11,0,0,1-5.92-9.79v-.75a17.7,17.7,0,0,1,.75-5.11L419.88,462l-10.49-8.47a22.69,22.69,0,0,1,6.27-5.68L424,459.45l-4.34-13.61a27.67,27.67,0,0,1,10.2-1.91,28.35,28.35,0,0,1,6,.64l-4.11,16.17,10.11-14.09a24.1,24.1,0,0,1,6.05,4.17L442.33,456l7-3.7a20.23,20.23,0,0,1,2,2.72l-11.89,7,13.61-3.37A17.84,17.84,0,0,1,454.08,464.55Z"/><path class="cls-31" d="M454.08,485.05v1.35a11.06,11.06,0,0,1-6.17,9.92h0a39.65,39.65,0,0,1-35.86-.46l-.49-.26a11,11,0,0,1-5.92-9.79v-.76a17.8,17.8,0,0,1,.75-5.11l13.49,2.56L409.39,474a22.69,22.69,0,0,1,6.27-5.68L424,480l-4.34-13.61a27.67,27.67,0,0,1,10.2-1.91,28.35,28.35,0,0,1,6,.64l-4.11,16.17,10.11-14.09a24.1,24.1,0,0,1,6.05,4.17l-5.61,5.18,7-3.7a20.79,20.79,0,0,1,2,2.71l-11.89,7,13.61-3.37A17.83,17.83,0,0,1,454.08,485.05Z"/><path class="cls-36" d="M454.08,504.23v1.34a11,11,0,0,1-6.17,9.92h0a39.59,39.59,0,0,1-35.86-.46l-.49-.25a11.06,11.06,0,0,1-5.92-9.79v-.76a17.75,17.75,0,0,1,.75-5.11l13.49,2.56-10.49-8.47a22.38,22.38,0,0,1,6.27-5.68L424,499.14l-4.34-13.61a27.67,27.67,0,0,1,10.2-1.92,29,29,0,0,1,6,.64l-4.11,16.18,10.11-14.1a23.87,23.87,0,0,1,6.05,4.18l-5.61,5.17,7-3.69a20.14,20.14,0,0,1,2,2.71l-11.89,7,13.61-3.38A17.84,17.84,0,0,1,454.08,504.23Z"/><path class="cls-37" d="M404.93,523.76V525a10.17,10.17,0,0,1-5.68,9.13h0a36.44,36.44,0,0,1-33-.42l-.44-.24a10.14,10.14,0,0,1-5.45-9v-.7a16,16,0,0,1,.69-4.7l12.4,2.35-9.65-7.79a20.69,20.69,0,0,1,5.77-5.22l7.67,10.68-4-12.52a25.45,25.45,0,0,1,9.38-1.76,25.86,25.86,0,0,1,5.55.59l-3.78,14.87,9.3-13a22,22,0,0,1,5.56,3.84l-5.16,4.76,6.46-3.4a19,19,0,0,1,1.83,2.49l-10.93,6.42,12.52-3.1A16.34,16.34,0,0,1,404.93,523.76Z"/><path class="cls-34" d="M382,549.61l18.75,28.61s5.42-11.45-.34-20.23S382,549.61,382,549.61Z"/><path class="cls-34" d="M369.69,579.54l16.54-29.93s-12.64.55-17.72,9.74S369.69,579.54,369.69,579.54Z"/><path class="cls-31" d="M404.93,541.4v1.23a10.15,10.15,0,0,1-5.68,9.12h0a36.44,36.44,0,0,1-33-.42l-.44-.23a10.15,10.15,0,0,1-5.45-9v-.69a16,16,0,0,1,.69-4.7l12.4,2.35-9.65-7.79a20.73,20.73,0,0,1,5.77-5.23l7.67,10.68-4-12.52a25.45,25.45,0,0,1,9.38-1.76,26.51,26.51,0,0,1,5.55.59l-3.78,14.88,9.3-13a22,22,0,0,1,5.56,3.84l-5.16,4.77,6.46-3.4a18.31,18.31,0,0,1,1.83,2.49l-10.93,6.42L404,536A16.25,16.25,0,0,1,404.93,541.4Z"/><path class="cls-34" d="M428.49,594.34l18.75,28.6s5.42-11.44-.34-20.22S428.49,594.34,428.49,594.34Z"/><path class="cls-34" d="M416.18,624.27l16.54-29.93s-12.64.55-17.72,9.74S416.18,624.27,416.18,624.27Z"/><path class="cls-38" d="M453.56,568.22v1.23a10.17,10.17,0,0,1-5.68,9.13h0a36.44,36.44,0,0,1-33-.42l-.45-.24a10.15,10.15,0,0,1-5.45-9v-.7a16.34,16.34,0,0,1,.69-4.7l12.41,2.35-9.65-7.79a20.69,20.69,0,0,1,5.77-5.22l7.67,10.68-4-12.52a26.07,26.07,0,0,1,14.93-1.17L433,564.72l9.3-13a22.06,22.06,0,0,1,5.57,3.84l-5.17,4.76,6.47-3.4a19,19,0,0,1,1.83,2.49l-10.94,6.42,12.53-3.1A16.59,16.59,0,0,1,453.56,568.22Z"/><path class="cls-31" d="M453.56,585.86v1.23a10.17,10.17,0,0,1-5.68,9.13h0a36.44,36.44,0,0,1-33-.43l-.45-.23a10.16,10.16,0,0,1-5.45-9v-.69a16.29,16.29,0,0,1,.69-4.7l12.41,2.35-9.65-7.79a20.73,20.73,0,0,1,5.77-5.23l7.67,10.68-4-12.51a25.35,25.35,0,0,1,9.39-1.77,26.42,26.42,0,0,1,5.54.59L433,582.36l9.3-13a22.06,22.06,0,0,1,5.57,3.84L442.74,578l6.47-3.4a18.31,18.31,0,0,1,1.83,2.49l-10.94,6.42,12.53-3.1A16.5,16.5,0,0,1,453.56,585.86Z"/><path class="cls-23" d="M170.39,570.93S222,573.6,236.05,605.7a118.61,118.61,0,0,1,9.67,37.81s-19.87.29-38.48-7.9C178.18,622.81,170.39,570.93,170.39,570.93Z"/><path class="cls-6" d="M258,600.29s-35.33-45.55-18.43-80.83a132.37,132.37,0,0,1,24.91-35.71s14.72,16.58,21.35,38.28C296.22,555.91,258,600.29,258,600.29Z"/><path class="cls-24" d="M273.37,663.15s-1.41-57.64,33.12-76a132.65,132.65,0,0,1,41.25-14s2,22.09-5.53,43.48C330.44,650.07,273.37,663.15,273.37,663.15Z"/><path class="cls-28" d="M264.52,483.75s-7.11,107.44-6.37,148.79,0,153.83,0,153.83"/><path class="cls-28" d="M170.39,570.93s88.09,50.87,88.09,113.54"/><path class="cls-28" d="M347.74,573.17S258.1,641.9,258.1,733.64"/></g><g id="Humans"><path class="cls-39" d="M1562.36,788.32a55.12,55.12,0,1,1,110.24,0"/><circle class="cls-11" cx="1616.26" cy="788.32" r="18.06"/><path class="cls-40" d="M1451.6,788.32a55.12,55.12,0,1,1,110.24,0"/><circle class="cls-11" cx="1505.5" cy="788.32" r="18.06"/><path class="cls-41" d="M1338.31,788.32a55.13,55.13,0,0,1,110.25,0"/><circle class="cls-11" cx="1392.21" cy="788.32" r="18.06"/><path class="cls-42" d="M569.33,788.32a55.13,55.13,0,0,1,110.25,0"/><circle class="cls-11" cx="623.23" cy="788.32" r="18.06"/><path class="cls-43" d="M458.58,788.32a55.12,55.12,0,1,1,110.24,0"/><circle class="cls-11" cx="512.48" cy="788.32" r="18.06"/><path class="cls-44" d="M345.29,788.32a55.12,55.12,0,1,1,110.24,0"/><circle class="cls-11" cx="399.19" cy="788.32" r="18.06"/><path class="cls-45" d="M1205.06,667.9l49.71-2.13C1257.24,674,1273.5,739,1273.5,739h-10.72l-27.24-62.05-58.09,13.36,2.18-22.37Z"/><ellipse class="cls-11" cx="1415.39" cy="710.6" rx="31.42" ry="10.53"/><polygon class="cls-11" points="1418.56 772.98 1418.56 715.64 1412.21 715.64 1412.21 772.98 1401.08 772.98 1401.08 779.2 1429.69 779.2 1429.69 772.98 1418.56 772.98"/><path class="cls-46" d="M1404.48,677.22l-48.83,32.66c-2.47,8.18-11.43,54.61-11.43,54.61h9.58l20.32-43.28,40.09-16.08,15.7-27.91Z"/><polyline class="cls-28" points="649.08 706.74 634.62 733.53 634.62 779.97"/><line class="cls-28" x1="811.24" y1="406.22" x2="667.66" y2="672.3"/><line class="cls-47" x1="753.31" y1="780.92" x2="945.89" y2="413.54"/><polygon class="cls-48" points="892.02 463.39 919.62 463.39 910.99 481.78 883.04 481.78 892.02 463.39"/><polygon class="cls-32" points="802.5 463.39 892.02 463.39 883.04 481.78 792.3 481.78 802.5 463.39"/><polygon class="cls-32" points="776.22 513.25 865.74 513.25 856.76 531.64 766.02 531.64 776.22 513.25"/><polygon class="cls-32" points="749.94 563.11 839.46 563.11 830.48 581.49 739.74 581.49 749.94 563.11"/><polygon class="cls-32" points="723.66 612.97 813.18 612.97 804.2 631.35 713.46 631.35 723.66 612.97"/><polygon class="cls-32" points="697.38 662.82 786.9 662.82 777.92 681.21 687.18 681.21 697.38 662.82"/><polygon class="cls-32" points="671.1 712.68 760.62 712.68 751.64 731.07 660.9 731.07 671.1 712.68"/><polygon class="cls-32" points="644.82 762.54 734.34 762.54 725.36 780.92 634.62 780.92 644.82 762.54"/><polygon class="cls-32" points="823.68 418.73 913.21 418.73 904.23 437.12 813.49 437.12 823.68 418.73"/><polygon class="cls-49" points="913.21 418.73 940.8 418.73 932.18 437.12 904.23 437.12 913.21 418.73"/><polygon class="cls-50" points="865.74 513.25 893.34 513.25 884.71 531.64 856.76 531.64 865.74 513.25"/><polygon class="cls-51" points="839.46 563.11 867.06 563.11 858.43 581.49 830.48 581.49 839.46 563.11"/><polygon class="cls-52" points="813.18 612.97 840.78 612.97 832.15 631.35 804.2 631.35 813.18 612.97"/><polygon class="cls-53" points="786.9 662.82 814.5 662.82 805.87 681.21 777.92 681.21 786.9 662.82"/><polygon class="cls-54" points="760.62 712.68 788.22 712.68 779.59 731.07 751.64 731.07 760.62 712.68"/><polygon class="cls-55" points="734.34 762.54 761.94 762.54 753.31 780.92 725.36 780.92 734.34 762.54"/><path class="cls-56" d="M615.78,587.39a3.63,3.63,0,0,0-.87-2,6.1,6.1,0,0,0-2.08-1.75,3,3,0,0,1-1.8-2.48,4.39,4.39,0,0,0-5.75-3.9,2.78,2.78,0,0,1-3-.87,4.36,4.36,0,0,0-6.61,0,2.85,2.85,0,0,1-3,.83,4.39,4.39,0,0,0-5.39,2.71,5.36,5.36,0,0,0-.27,1.38,2.76,2.76,0,0,1-1.68,2.33,4.4,4.4,0,0,0-2.73,4.07,4.24,4.24,0,0,0,.09.88,2.63,2.63,0,0,1-.77,2.45,4.4,4.4,0,0,0-1.39,3.21,4.35,4.35,0,0,0,1.87,3.58,2.62,2.62,0,0,1,1,2.72,4.24,4.24,0,0,0-.1.88,4.51,4.51,0,0,0,2,3.61,5.19,5.19,0,0,0,2.29.79,2.07,2.07,0,0,1,1.68,1.45,4.4,4.4,0,0,0,5.77,2.7,2.61,2.61,0,0,1,2.53.42,4.36,4.36,0,0,0,6.79-2.17c4.84-2.22,7.25-7.85,9.23-14a7.61,7.61,0,0,0,.3-3A4.4,4.4,0,0,0,615.78,587.39Z"/><path class="cls-57" d="M620.17,655.22l52,37.39c2.47,8.19-5.4,54.62-5.4,54.62h-9.58l-3.49-43.29-43.26-20.8-15.7-27.92Z"/><path class="cls-58" d="M590.08,655.22S578,675.2,580,688.94s8.65,73.19,8.65,73.19h8.84L615,655.22Z"/><path class="cls-59" d="M666.77,747.23l-1.19,9.31,10.06,2.75v3.36H659.31a3.3,3.3,0,0,1-3.3-3.31l1.18-12.11Z"/><path class="cls-59" d="M597.46,762.13l-.81,9.32,11.58,2.74v3.36H592.79a3.3,3.3,0,0,1-3.3-3.3l-.87-12.12Z"/><polygon class="cls-60" points="623.48 611.33 586.93 611.33 590.08 655.22 620.17 655.22 623.48 611.33"/><path class="cls-60" d="M639.44,628.74H622.13l-4.54-17.42H622a17.42,17.42,0,0,1,17.41,17.41Z"/><path class="cls-60" d="M588.62,628.74l4.54-17.41h-4.43c-9.62,0-15.71,3.79-20.21,10.87Z"/><polygon class="cls-61" points="568.52 622.2 555.18 654.94 565.21 659.45 588.62 628.74 568.52 622.2"/><polygon class="cls-61" points="639.44 628.75 642.2 652.12 633.05 658.27 622.13 628.75 639.44 628.75"/><polygon class="cls-61" points="668.52 677.22 673.59 681.07 675.14 690.77 671.22 690.38 668.89 684.69 667.05 684.71 668.33 686.93 667.62 688.65 664.4 684.8 664.55 680.55 668.52 677.22"/><path class="cls-61" d="M642.35,652.41l26.17,24.81-4,3.33S639.34,666,633.9,659.49Z"/><path class="cls-61" d="M642.35,652.41a5.51,5.51,0,1,1-7.77-.69A5.51,5.51,0,0,1,642.35,652.41Z"/><path class="cls-62" d="M1434.57,677.22s10.51,8.08,9.2,21.9c-.39,4.12-3.11,7-6.27,9.12-15,9.83-62.65-.75-72.22-4.8l-34.49,41.43h-13.2l38.58-60.44,49.17-6.83Z"/><path class="cls-4" d="M1344.22,764.49l-3.54,9.32-10.06,2.74v3.36h18.7a3.3,3.3,0,0,0,3.3-3.3l1.18-12.12Z"/><path class="cls-4" d="M1317.59,744.87l-3.18,6.56-11.58,2.75v3.36h17.8c1.82,0,10.16-12.67,10.16-12.67Z"/><polygon class="cls-63" points="1438.73 633.71 1402.19 633.71 1405.34 677.6 1435.43 677.6 1438.73 633.71"/><path class="cls-63" d="M1454.69,651.12h-17.3l-4.54-17.42h4.43a17.41,17.41,0,0,1,17.41,17.41Z"/><path class="cls-63" d="M1403.88,651.12l4.54-17.41H1404c-9.61,0-15.7,3.79-20.2,10.87Z"/><polygon class="cls-64" points="1383.78 644.58 1370.44 677.31 1380.47 681.83 1403.88 651.12 1383.78 644.58"/><polygon class="cls-64" points="1334.13 679.12 1327.79 679.58 1321.21 686.87 1324.7 688.68 1329.76 685.18 1331.29 686.2 1329.01 687.36 1328.66 689.19 1333.46 687.72 1335.65 684.06 1334.13 679.12"/><path class="cls-64" d="M1375.65,672.37l-41.52,6.74,1.52,4.95s35.1,1.37,43.23-1.15Z"/><path class="cls-64" d="M1376.5,672.18a5.51,5.51,0,1,0,5.71,3A5.51,5.51,0,0,0,1376.5,672.18Z"/><path class="cls-65" d="M1170.29,674.54s-.65,2.7.51,9c2.52,13.69,14.34,15.27,25.78,15.27,6,0,37.08-2.47,46.65-6.53L1258.92,739h9.66l-11.22-66.42-59-3.17Z"/><path class="cls-66" d="M1273.5,739l5.31,6.27,10.34,1.27.48,5.4-18.49-.53c-1.81.26-8.36-12.41-8.36-12.41Z"/><path class="cls-57" d="M1268.58,739l3.19,6.57,11.58,2.75v3.35H1265c-5.39,0-6.12-12.67-6.12-12.67Z"/><polygon class="cls-67" points="1170.81 624.4 1207.35 624.4 1205.66 641.81 1198.36 669.37 1170.29 674.54 1170.81 624.4"/><path class="cls-67" d="M1154.85,641.81h17.3l4.54-17.41h-4.43a17.4,17.4,0,0,0-17.41,17.41Z"/><path class="cls-67" d="M1205.66,641.81l-4.54-17.41h4.44c9.61,0,15.7,3.79,20.2,10.87Z"/><polygon class="cls-22" points="1225.76 635.27 1239.1 668 1228.15 671.84 1205.66 641.81 1225.76 635.27"/><polygon class="cls-22" points="1254.24 638.71 1258.1 633.65 1267.8 632.13 1267.41 636.04 1261.71 638.36 1261.73 640.2 1263.94 638.93 1265.67 639.64 1261.81 642.85 1257.55 642.68 1254.24 638.71"/><path class="cls-22" d="M1229.36,664.79l24.88-26.08,3.31,4s-14.58,25.16-21.13,30.59Z"/><path class="cls-22" d="M1228.74,665.4a5.51,5.51,0,1,1-.59,6.44A5.52,5.52,0,0,1,1228.74,665.4Z"/><path class="cls-22" d="M1201.47,612.54c0-1,.36-7.27-2.47-9.09s-8.44-3.05-11.92.59-2.89,10.33,1.27,15.41c-.08,1.53-.22,5.65-.37,6.87a3.54,3.54,0,0,0,3.52,4h0a3.55,3.55,0,0,0,3.52-3.92,59.19,59.19,0,0,1-.22-6.07c4.65-.94,7.28-1.46,7.1-2.83s-.4-2.94-.15-3c.54,0,1-.25.73-.49A13.22,13.22,0,0,1,1201.47,612.54Z"/><ellipse class="cls-11" cx="1304.77" cy="661.85" rx="45.12" ry="9.88"/><circle class="cls-68" cx="1200.06" cy="737.27" r="38.59"/><rect class="cls-11" x="1137.89" y="629.45" width="18.53" height="5.36"/><path class="cls-68" d="M1156.42,629.45v46.14a23.1,23.1,0,0,0,23.1,23.09h45l36.37,56.5h15.89"/><rect class="cls-69" x="576.48" y="626.95" width="26.3" height="36.85" transform="translate(629.05 -227.91) rotate(45)"/><polygon class="cls-61" points="597.08 650.44 603.25 648.89 608.48 640.58 604.73 639.4 600.35 643.72 598.67 642.97 600.72 641.44 600.74 639.57 596.27 641.85 594.74 645.83 597.08 650.44"/><path class="cls-61" d="M562.83,661.79l34.25-11.35-2.34-4.61s-29.33,2.25-36.9,6.13Z"/><path class="cls-61" d="M562.83,661.79a5.51,5.51,0,1,0-7.41-2.42A5.51,5.51,0,0,0,562.83,661.79Z"/><polygon class="cls-30" points="816.22 286.21 779.68 286.21 781.91 328.08 816.76 333.35 816.22 286.21"/><path class="cls-30" d="M832.18,303.62h-17.3l-4.54-17.41h4.43a17.41,17.41,0,0,1,17.41,17.41Z"/><path class="cls-45" d="M740.29,323.29c-7.45,4.18-34,43.11-34,43.11l6.9,6.64,32.52-28.78,57.61,9.67a16.21,16.21,0,0,0,16.08-6.87h0c3.79-5.57,3.52-9.58-1-14.59Z"/><path class="cls-30" d="M781.37,303.62l4.53-17.41h-4.43c-9.61,0-15.7,3.79-20.21,10.87Z"/><polygon class="cls-70" points="761.26 297.08 746.92 325.16 761.26 327.52 778.81 302.79 761.26 297.08"/><polygon class="cls-70" points="722.97 313.26 716.81 311.66 708.23 316.44 710.96 319.28 716.87 317.59 722.81 318.43 722.97 313.26"/><path class="cls-70" d="M756.91,318.38,723,313.26l-.16,5.17s25.27,10.74,33.77,11Z"/><path class="cls-70" d="M757.78,318.47a5.51,5.51,0,1,0,4.44,4.71A5.53,5.53,0,0,0,757.78,318.47Z"/><polygon class="cls-70" points="816.18 303.62 815.49 329.11 830.48 332.78 832.18 303.62 816.18 303.62"/><polygon class="cls-70" points="795.5 325.31 789.32 323.79 780.8 328.68 783.56 331.48 789.46 329.72 795.4 330.49 795.5 325.31"/><path class="cls-70" d="M825.07,327.05l-29.57-1.74-.1,5.18s21,7.45,29.47,7.58Z"/><path class="cls-70" d="M825.94,327.13a5.51,5.51,0,1,0,4.49,4.65A5.51,5.51,0,0,0,825.94,327.13Z"/><path class="cls-70" d="M785.56,274.35c.05-1-.37-7.26,2.47-9.08s8.44-3,11.92.58,2.89,10.33-1.28,15.42c.08,1.52.23,5.64.38,6.86a3.55,3.55,0,0,1-3.52,4h0a3.54,3.54,0,0,1-3.52-3.92c.16-1.58.3-5.79.22-6.06-4.66-.95-7.28-1.47-7.1-2.83s.39-2.95.14-3c-.53,0-.94-.25-.72-.49A13.22,13.22,0,0,0,785.56,274.35Z"/><polygon class="cls-71" points="798.67 281.27 792.23 282.13 792.23 284.9 798.67 281.27"/><path class="cls-47" d="M836.66,297.73V334a9.12,9.12,0,0,1-9.12,9.12H818"/><path class="cls-6" d="M793.36,272.87l1.17,1.17a2.29,2.29,0,0,1,2.09-1.58c1.6,0,2.1,2.1.12,3.23s1.93,5.58,1.93,5.58,5.22-.6,7-7.37c1.55-5.87-.88-9.95-5.54-11.37-5.55-1.7-6.38,1.69-11.21-.09-5.91-2.18-4.43,1.59-4.43,1.59s-4.57.94,2,3.76c4,1.71,6.11-1.13,7.8.28C795.58,269.14,793.36,272.87,793.36,272.87Z"/><path class="cls-61" d="M614.85,598.62c-.05-1,.36-7.27-2.47-9.09s-8.44-3-11.92.58-2.89,10.33,1.27,15.42c-.08,1.52-.22,5.65-.37,6.86a3.54,3.54,0,0,0,3.52,4h0a3.54,3.54,0,0,0,3.52-3.92,59,59,0,0,1-.22-6.06c4.65-.95,7.28-1.47,7.1-2.83s-.4-2.94-.15-3c.54,0,1-.24.73-.49A13.4,13.4,0,0,1,614.85,598.62Z"/><polygon class="cls-56" points="608.18 606.39 601.73 605.53 608.18 608.91 608.18 606.39"/><path class="cls-66" d="M1202.07,604.16c0,1.3-10.26,11.19-9.69,11.39-.75,1.18-3,4-5,4-3.18,0-10.86-8.53-1.51-17.42C1191.38,596.85,1202.07,604.16,1202.07,604.16Z"/><path class="cls-56" d="M614,591.74s-5.21.37-5.15,5.42c0,2.82-6.47,3.48-6.09,4.23s-.63,5.83-3.46,6.26c-7,1.09-15.7-10.88-3.73-20.93C601.49,581.78,612.38,584.16,614,591.74Z"/><circle class="cls-61" cx="603.89" cy="598.71" r="2.82"/><path class="cls-63" d="M1402.19,658.82c-3.73,8-9.46,14.74-3.58,24.33,7.05,11.53,17.29,9.25,31.41,9.25s13.25-1,13.25-1l-4.53-57.66h-36.55S1405.92,650.81,1402.19,658.82Z"/><polygon class="cls-64" points="1454.69 651.13 1455.08 675.81 1442.25 678.4 1440.11 651.13 1454.69 651.13"/><polygon class="cls-64" points="1418.57 688.62 1412.39 690.14 1403.88 685.25 1406.64 682.45 1412.53 684.21 1413.67 682.76 1411.15 682.37 1410.25 680.74 1415.27 680.65 1418.48 683.45 1418.57 688.62"/><path class="cls-64" d="M1450.61,682.11l-32,6.51-.09-5.17s22.56-12.17,31.07-12.29Z"/><path class="cls-64" d="M1450.61,682.11a5.52,5.52,0,1,1,4.49-4.65A5.52,5.52,0,0,1,1450.61,682.11Z"/><path class="cls-64" d="M1408.07,621.86c0-1.05-.36-7.27,2.47-9.09s8.44-3,11.92.58,2.89,10.33-1.27,15.42c.08,1.52.22,5.65.37,6.86a3.54,3.54,0,0,1-3.52,4h0a3.54,3.54,0,0,1-3.52-3.92,59,59,0,0,0,.22-6.06c-4.65-1-7.28-1.47-7.1-2.83s.4-2.94.15-3c-.54,0-1-.24-.73-.49A13.4,13.4,0,0,0,1408.07,621.86Z"/><polygon class="cls-72" points="1414.74 629.63 1421.19 628.77 1414.74 633.07 1414.74 629.63"/><path class="cls-66" d="M1408.31,617.27l9.19,5,3,.57s.13,4.46-3.14,20.48l20-9.6s.26-15.59-11.13-22.55c-7.67-4.7-14-1.47-16.45.57C1406.3,614.54,1408.31,617.27,1408.31,617.27Z"/><circle class="cls-64" cx="1419.21" cy="622.49" r="2.82"/><circle class="cls-70" cx="797.17" cy="274.33" r="2.82"/><circle class="cls-22" cx="1192.94" cy="612.91" r="2.82"/><circle class="cls-66" cx="1428.05" cy="608.74" r="6.86"/><path class="cls-6" d="M794.77,272.43c0,.85-2.52,9.73-2.53,9.7-4.67-.94-7.29-1.46-7.1-2.82s.39-2.94.14-3c-.53,0,3.21-.06,3.81-.06C792.2,276.29,794.77,269.31,794.77,272.43Z"/><polygon class="cls-22" points="1154.85 641.81 1151.8 668.53 1161.23 671.34 1172.15 641.81 1154.85 641.81"/><polygon class="cls-22" points="1195.52 661.43 1201.8 660.42 1209.89 666 1206.91 668.56 1201.18 666.32 1195.19 666.6 1195.52 661.43"/><path class="cls-22" d="M1157.67,663.53l37.85-2.1-.33,5.17s-29.74,8.51-38.23,7.93Z"/><path class="cls-22" d="M1156.8,663.54a5.52,5.52,0,1,1-4.86,4.27A5.52,5.52,0,0,1,1156.8,663.54Z"/></g><g id="Structures"><path class="cls-73" d="M741.26,487.77H780A106.68,106.68,0,0,1,886.7,594.45V783.14a0,0,0,0,1,0,0H634.58a0,0,0,0,1,0,0V594.45A106.68,106.68,0,0,1,741.26,487.77Z"/><circle class="cls-74" cx="1710.74" cy="522.66" r="35.5"/><circle class="cls-11" cx="1709.96" cy="522.66" r="11.63"/><circle class="cls-75" cx="808.8" cy="102.47" r="35.5"/><circle class="cls-11" cx="808.01" cy="102.47" r="11.63"/><circle class="cls-76" cx="112.51" cy="764.48" r="35.5"/><circle class="cls-11" cx="111.72" cy="764.48" r="11.63"/><path class="cls-4" d="M1535.87,813.09c0,92.43-309.79,167.37-592.81,167.37-338.47,0-592.82-74.94-592.82-167.37Z"/><path class="cls-77" d="M1535.87,813.09c0,70.24-178.92,130.39-389,155.2l2.88-.88c61-18.86,47.37-108.82-16.46-108.82H371.62c-14-14.47-21.38-29.72-21.38-45.5Z"/><rect class="cls-22" x="390.07" y="252.68" width="132.35" height="36.14"/><rect class="cls-78" x="536.59" y="156.61" width="136.21" height="78.09"/><circle class="cls-6" cx="437.54" cy="229.4" r="12.51"/><circle class="cls-6" cx="402.58" cy="229.4" r="12.51"/><rect class="cls-23" x="537.77" y="248.9" width="12.86" height="12.86"/><rect class="cls-78" x="569.02" y="248.9" width="12.86" height="12.86"/><rect class="cls-79" x="598.78" y="248.9" width="12.86" height="12.86"/><rect class="cls-23" x="628.54" y="248.9" width="12.86" height="12.86"/><rect class="cls-79" x="658.29" y="248.9" width="12.86" height="12.86"/><rect class="cls-79" x="537.77" y="275.96" width="12.86" height="12.86"/><rect class="cls-23" x="569.02" y="275.96" width="12.86" height="12.86"/><rect class="cls-78" x="598.78" y="275.96" width="12.86" height="12.86"/><rect class="cls-79" x="628.54" y="275.96" width="12.86" height="12.86"/><rect class="cls-78" x="658.29" y="275.96" width="12.86" height="12.86"/><rect class="cls-67" x="507" y="198.56" width="15.42" height="43.35"/><rect class="cls-45" x="483.31" y="198.56" width="15.42" height="43.35"/><rect class="cls-67" x="459.62" y="198.56" width="15.42" height="43.35"/><rect class="cls-69" x="390.07" y="198.56" width="59.99" height="8.04"/><path class="cls-80" d="M516.32,274H505.26v-2.88a9.39,9.39,0,0,0-9.39-9.39h0a9.38,9.38,0,0,0-9.39,9.39h0a7.39,7.39,0,0,1-7.39,7.39h0a7.39,7.39,0,0,1-7.39-7.39V267.8a6,6,0,0,0-6-6h0a6,6,0,0,0-6,6v8.84a5.74,5.74,0,0,1-5.74,5.75h0a5.74,5.74,0,0,1-5.74-5.75V268a6.27,6.27,0,0,0-6.27-6.27h0a6.26,6.26,0,0,0-6.26,6.27v2.55a5.38,5.38,0,0,1-5.38,5.38h.34a5.21,5.21,0,0,1-5.21-5.21h0c0-7.27-5.09-9-8.55-9h0c-3.46,0-8.53,1.74-8.53,8v5H396.75"/><line class="cls-81" x1="437.54" y1="222.01" x2="437.54" y2="229.4"/><line class="cls-81" x1="402.58" y1="229.4" x2="409.29" y2="229.4"/><path class="cls-67" d="M703.35,160.39a18.87,18.87,0,0,0-14.11,31.42l27.33-26A18.87,18.87,0,0,0,703.35,160.39Z"/><path class="cls-45" d="M716.57,165.79l-27.33,26a18.88,18.88,0,1,0,27.33-26Z"/><path class="cls-82" d="M684.46,231.77a18.87,18.87,0,0,0,28.27,16.38l-20.4-31.71A18.87,18.87,0,0,0,684.46,231.77Z"/><path class="cls-65" d="M722.25,231.77a18.87,18.87,0,0,0-29.92-15.33l20.4,31.71A18.88,18.88,0,0,0,722.25,231.77Z"/><line class="cls-83" x1="514.71" y1="237.43" x2="514.71" y2="211"/><line class="cls-83" x1="491.02" y1="237.43" x2="491.02" y2="227.87"/><line class="cls-83" x1="467.33" y1="237.43" x2="467.33" y2="208.85"/><rect class="cls-59" x="550.96" y="169.4" width="6.43" height="21.98"/><rect class="cls-6" x="550.96" y="191.37" width="6.43" height="33.16"/><rect class="cls-6" x="569.75" y="202.89" width="6.43" height="21.64"/><rect class="cls-59" x="569.75" y="169.4" width="6.43" height="33.49"/><rect class="cls-6" x="590.9" y="183.84" width="6.43" height="40.68"/><rect class="cls-59" x="590.9" y="169.4" width="6.43" height="14.45"/><rect class="cls-59" x="612.05" y="169.4" width="6.43" height="27.57"/><rect class="cls-6" x="612.05" y="196.96" width="6.43" height="27.57"/><rect class="cls-6" x="633.2" y="186.52" width="6.43" height="38"/><rect class="cls-59" x="633.2" y="169.4" width="6.43" height="17.13"/><rect class="cls-6" x="651.99" y="197.45" width="6.43" height="27.08"/><rect class="cls-59" x="651.99" y="169.4" width="6.43" height="28.05"/><rect class="cls-22" x="710.29" y="219.15" width="53.67" height="9.89" transform="translate(513.03 961.21) rotate(-90)"/><rect class="cls-22" x="727.53" y="219.15" width="53.67" height="9.89" transform="translate(530.27 978.45) rotate(-90)"/><rect class="cls-22" x="761.7" y="234.04" width="23.88" height="9.89" transform="translate(534.65 1012.63) rotate(-90)"/><rect class="cls-22" x="1510.18" y="340.93" width="53.72" height="8.04"/><rect class="cls-22" x="1510.18" y="326.64" width="53.72" height="8.04"/><rect class="cls-22" x="1489.99" y="292.16" width="48.43" height="8.04" transform="translate(1218.02 1810.38) rotate(-90)"/><rect class="cls-22" x="1504" y="292.16" width="48.43" height="8.04" transform="translate(1232.04 1824.39) rotate(-90)"/><rect class="cls-22" x="1531.78" y="304.27" width="24.21" height="8.04" transform="translate(1235.6 1852.17) rotate(-90)"/><rect class="cls-22" x="1265.06" y="316.37" width="48.43" height="8.04" transform="translate(968.88 1609.66) rotate(-90)"/><rect class="cls-22" x="1251.04" y="316.37" width="48.43" height="8.04" transform="translate(954.87 1595.65) rotate(-90)"/><rect class="cls-22" x="1247.48" y="328.48" width="24.21" height="8.04" transform="translate(927.09 1592.09) rotate(-90)"/></g><g id="Layer_8" data-name="Layer 8"><g class="cls-84"><path class="cls-4" d="M912.14,374.53c0,24.74-140.33,44.8-313.44,44.8s-296.89-20.06-296.89-44.8S425.6,313.19,598.7,313.19,912.14,349.79,912.14,374.53Z"/><path class="cls-32" d="M408.5,329.24v23.08c-54.36,11.16-101.44,26.46-133.16,44.23l-10-14.56C301.23,357.73,350.22,340.46,408.5,329.24Z"/><path class="cls-32" d="M920.08,365.86v20.61c-36.56-16.34-87-29.87-143.14-39.25V326C833.14,335.22,882.1,349,920.08,365.86Z"/><path class="cls-32" d="M776.94,326v21.25c-29.64-5-60.87-8.75-92.53-11.19V315.38C716.85,317.59,747.86,321.17,776.94,326Z"/><path class="cls-32" d="M684.41,315.38V336c-27-2.09-54.29-3.19-81.15-3.19A998.92,998.92,0,0,0,501,338.21V317c34-2.8,70-4.14,107.32-4.14C634.37,312.83,659.8,313.71,684.41,315.38Z"/><path class="cls-32" d="M501,317v21.24c-32.12,3.34-63.37,8.12-92.53,14.11V329.24A871.83,871.83,0,0,1,501,317Z"/><ellipse class="cls-3" cx="611.32" cy="387.43" rx="263.72" ry="31.89"/><line class="cls-47" x1="1208.21" y1="360.19" x2="1589.65" y2="360.19"/><polyline class="cls-47" points="454.09 344.96 608.4 419.33 751.64 343.46"/><line class="cls-47" x1="608.95" y1="333.13" x2="608.95" y2="419.33"/><path class="cls-28" d="M389.77,404.74c36.43-11.48,103-24.19,219.19-24.19,105.61,0,179.28,11.83,226.58,23.68"/><path class="cls-78" d="M244.2,423.37c39.87-50.64,205.79-90.24,361.67-90.24,158.37,0,332,38.36,369.47,90.24"/><path class="cls-47" d="M268,382.28c71.88-48.63,196.5-69.16,343-69.16,126.52,0,239.18,20.74,311.73,53"/><polyline class="cls-28" points="307.88 367.2 611.32 419.33 907.2 365.74"/><rect class="cls-28" x="1298.63" y="255.44" width="100.84" height="88.1" transform="translate(1049.56 1648.54) rotate(-90)"/><rect class="cls-59" x="1353.42" y="334.5" width="13.64" height="4.76"/><rect class="cls-22" x="1367.06" y="334.5" width="20.58" height="4.76"/><rect class="cls-22" x="1374.21" y="320.59" width="13.43" height="4.76"/><rect class="cls-59" x="1353.42" y="320.59" width="20.79" height="4.76"/><rect class="cls-6" x="1362.39" y="304.94" width="25.25" height="4.76"/><rect class="cls-23" x="1353.42" y="304.94" width="8.97" height="4.76"/><rect class="cls-59" x="1353.42" y="289.28" width="17.11" height="4.76"/><rect class="cls-22" x="1370.53" y="289.28" width="17.11" height="4.76"/><rect class="cls-6" x="1364.05" y="273.62" width="23.59" height="4.76"/><rect class="cls-45" x="1353.42" y="273.62" width="10.63" height="4.76"/><rect class="cls-22" x="1370.83" y="259.71" width="16.81" height="4.76"/><rect class="cls-59" x="1353.42" y="259.71" width="17.41" height="4.76"/><rect class="cls-23" x="1330.1" y="259.25" width="13.64" height="4.76"/><rect class="cls-6" x="1309.52" y="259.25" width="20.58" height="4.76"/><rect class="cls-22" x="1309.52" y="273.16" width="13.43" height="4.76"/><rect class="cls-59" x="1322.95" y="273.16" width="20.79" height="4.76"/><rect class="cls-45" x="1309.52" y="288.82" width="25.25" height="4.76"/><rect class="cls-23" x="1334.77" y="288.82" width="8.97" height="4.76"/><rect class="cls-59" x="1326.63" y="304.47" width="17.11" height="4.76"/><rect class="cls-22" x="1309.52" y="304.47" width="17.11" height="4.76"/><rect class="cls-22" x="1309.52" y="320.13" width="23.59" height="4.76"/><rect class="cls-59" x="1333.1" y="320.13" width="10.63" height="4.76"/><rect class="cls-45" x="1309.52" y="334.04" width="16.81" height="4.76"/><rect class="cls-23" x="1326.32" y="334.04" width="17.41" height="4.76"/><path class="cls-82" d="M1424.39,254.59a6.64,6.64,0,0,1-13.28,0"/><path class="cls-45" d="M1411.11,254.59a6.64,6.64,0,0,1,13.28,0"/><path class="cls-45" d="M1444.23,259.29a6.64,6.64,0,1,1-8.14-10.38"/><path class="cls-82" d="M1436.09,248.91a6.71,6.71,0,0,1,3.44-1,6.65,6.65,0,0,1,4.7,11.34"/><path class="cls-45" d="M1466,249.9a6.64,6.64,0,0,1-9.39,9.39"/><path class="cls-82" d="M1456.62,259.29a6.64,6.64,0,1,1,9.39-9.39"/><path class="cls-82" d="M1489.73,254.59a6.64,6.64,0,0,1-13.28,0"/><path class="cls-45" d="M1476.45,254.59a6.64,6.64,0,0,1,13.28,0"/><path class="cls-85" d="M1416.22,329.78v-31a5.84,5.84,0,0,1,5.84-5.84h0a5.85,5.85,0,0,1,5.84,5.84v32.33a5,5,0,0,0,5,5h0a5,5,0,0,0,5-5V302a5,5,0,0,1,5-5h0a5,5,0,0,1,5,5v22.51a4.1,4.1,0,0,0,4.1,4.1h0a4.1,4.1,0,0,0,4.1-4.1V295.65a7,7,0,0,1,7-6.94h0a6.94,6.94,0,0,1,6.94,6.94V334a5,5,0,0,0,5,5h0a5,5,0,0,0,5-5v-17.2a4.79,4.79,0,0,1,4.8-4.79h0a4.79,4.79,0,0,1,4.79,4.79v13"/><path class="cls-86" d="M1470,334a5,5,0,0,0,5,5h0a5,5,0,0,0,5-5v-17.2a4.79,4.79,0,0,1,4.8-4.79h0a4.79,4.79,0,0,1,4.79,4.79"/><path class="cls-87" d="M1438,310.9V302a5,5,0,0,1,5-5h0a5,5,0,0,1,5,5v22.51a4.1,4.1,0,0,0,4.1,4.1h0a4.1,4.1,0,0,0,4.1-4.1V295.65a7,7,0,0,1,7-6.94h0a6.94,6.94,0,0,1,6.94,6.94v8.56"/><path class="cls-88" d="M1427.9,331.06a5,5,0,0,0,5,5h0a5,5,0,0,0,5-5V318.67"/><path class="cls-89" d="M1416.22,304.21v-5.48a5.84,5.84,0,0,1,5.84-5.84h0a5.85,5.85,0,0,1,5.84,5.84v10.88"/><rect class="cls-78" x="1403.69" y="272.83" width="94.67" height="77.07"/><path class="cls-90" d="M1607.06,406.26H1158.87V368.45l2.68,7.73a11.43,11.43,0,0,0,21.58,0l.18-.52a11.41,11.41,0,0,1,21.56,0l.19.52c3.54,10.22,18,10.22,21.56,0l.18-.53a11.42,11.42,0,0,1,21.57,0l.19.53a11.41,11.41,0,0,0,21.56,0l.19-.53a11.42,11.42,0,0,1,21.57,0l.17.53a11.43,11.43,0,0,0,21.58,0l.18-.52a11.41,11.41,0,0,1,21.56,0l.18.51a11.42,11.42,0,0,0,21.58,0l.17-.51a11.42,11.42,0,0,1,21.57,0l.19.52c3.54,10.22,18,10.22,21.56,0l.18-.53a11.42,11.42,0,0,1,21.57,0l.18.53a11.42,11.42,0,0,0,21.57,0l.19-.53a11.41,11.41,0,0,1,21.56,0l.19.53a11.42,11.42,0,0,0,21.57,0l.18-.53a11.42,11.42,0,0,1,21.57,0l.18.53a11.42,11.42,0,0,0,21.57,0l.18-.53c3.56-10.23,18-10.24,21.57,0l.2.56a11.42,11.42,0,0,0,21.57,0l.18-.56a11.42,11.42,0,0,1,21.57,0Z"/></g><rect class="cls-91" x="700.08" y="261.76" width="12.09" height="5.85"/><rect class="cls-91" x="715.24" y="261.76" width="12.09" height="5.85"/><rect class="cls-91" x="730.41" y="261.76" width="12.09" height="5.85"/><rect class="cls-91" x="745.57" y="261.76" width="12.09" height="5.85"/><rect class="cls-91" x="760.73" y="261.76" width="12.09" height="5.85"/><rect class="cls-91" x="775.89" y="261.76" width="12.09" height="5.85"/><rect class="cls-91" x="700.06" y="272.2" width="12.09" height="5.85"/><rect class="cls-91" x="715.22" y="272.2" width="12.09" height="5.85"/><rect class="cls-91" x="730.38" y="272.2" width="12.09" height="5.85"/><rect class="cls-91" x="745.54" y="272.2" width="12.09" height="5.85"/><rect class="cls-91" x="760.71" y="272.2" width="12.09" height="5.85"/><rect class="cls-91" x="775.87" y="272.2" width="12.09" height="5.85"/><rect class="cls-91" x="700.03" y="282.64" width="12.09" height="5.85"/><rect class="cls-91" x="715.2" y="282.64" width="12.09" height="5.85"/><rect class="cls-91" x="730.36" y="282.64" width="12.09" height="5.85"/><rect class="cls-91" x="745.52" y="282.64" width="12.09" height="5.85"/><rect class="cls-91" x="760.68" y="282.64" width="12.09" height="5.85"/><rect class="cls-91" x="775.84" y="282.64" width="12.09" height="5.85"/><rect class="cls-91" x="700.01" y="293.08" width="12.09" height="5.85"/><rect class="cls-91" x="715.17" y="293.08" width="12.09" height="5.85"/><rect class="cls-91" x="730.33" y="293.08" width="12.09" height="5.85"/><rect class="cls-91" x="745.5" y="293.08" width="12.09" height="5.85"/><rect class="cls-91" x="760.66" y="293.08" width="12.09" height="5.85"/><rect class="cls-91" x="775.82" y="293.08" width="12.09" height="5.85"/></g><g id="Front_structure" data-name="Front structure"><path class="cls-92" d="M499.86,136.66S329,186.59,329,406.92V781.25h40.44V425.91C369.46,199.94,499.86,136.66,499.86,136.66Z"/><path class="cls-93" d="M1444.32,234.48c58.9,0,136.76,85.21,136.76,196.84V784.26h-38.8V479.94C1542.28,281.26,1444.32,234.48,1444.32,234.48Z"/><path class="cls-47" d="M1395.68,214.49c-204.17,0-134,246.41-349.15,246.41-84.24,0-146.86-100.39-198.58-183.35C761.14,138.34,682.12,105.78,595.84,100.7,437.37,91.38,306,230.49,306,390.59V787.05c159.9,0,1183.61-7,1295.68-7,0,0-2.56-206.4-2.56-318.73C1599.08,282,1508,214.49,1395.68,214.49Z"/><line class="cls-28" x1="802.5" y1="463.4" x2="919.61" y2="463.4"/><line class="cls-28" x1="823.57" y1="418.18" x2="943.05" y2="418.18"/><line class="cls-28" x1="777.92" y1="513.25" x2="893.86" y2="513.25"/><line class="cls-28" x1="867.36" y1="563.11" x2="750.24" y2="563.11"/><line class="cls-28" x1="724.11" y1="612.97" x2="841.23" y2="612.97"/><line class="cls-28" x1="698.24" y1="662.82" x2="815.36" y2="662.82"/><line class="cls-28" x1="672.47" y1="713.47" x2="788.41" y2="713.47"/><line class="cls-28" x1="645.01" y1="763.33" x2="762.13" y2="763.33"/><path class="cls-4" d="M212.59,777.51H1673.48a0,0,0,0,1,0,0v5.76A31.72,31.72,0,0,1,1641.76,815H244.3a31.72,31.72,0,0,1-31.72-31.72v-5.76a0,0,0,0,1,0,0Z"/><rect class="cls-32" x="212.59" y="777.51" width="1460.89" height="8.78"/><rect class="cls-24" x="1908.39" y="892.1" width="197.41" height="9.17" transform="translate(-179.48 1123.31) rotate(-29.99)"/><line class="cls-94" x1="1919.01" y1="948.06" x2="2087.92" y2="849.34"/></g></g></svg>